<?xml version="1.0" encoding="utf-8"?>
<!-- Generator: Adobe Illustrator 19.1.0, SVG Export Plug-In . SVG Version: 6.00 Build 0)  -->
<svg version="1.1" id="Layer_1" xmlns="http://www.w3.org/2000/svg" xmlns:xlink="http://www.w3.org/1999/xlink" x="0px" y="0px"
	 viewBox="0 0 115 70" style="enable-background:new 0 0 115 70;" xml:space="preserve">
<style type="text/css">
	.st0{fill:#164583;}
	.st1{fill:#B3E1E7;}
	.st2{fill:#96CED6;}
	.st3{fill:#D4EEF6;}
	.st4{fill:#FF8C36;}
	.st5{fill:#0059B2;}
	.st6{fill:#F3F7E1;}
</style>
<g>
	<path class="st0" d="M58.1,18.6c0,0-0.1,0-0.1,0c-0.4-0.1-0.6-0.4-0.5-0.8l0.3-1.9c0.1-0.4,0.4-0.6,0.8-0.5
		c0.4,0.1,0.6,0.4,0.5,0.8l-0.3,1.9C58.7,18.4,58.4,18.6,58.1,18.6z"/>
	<path class="st0" d="M60.6,4.2c0,0-0.1,0-0.1,0c-0.4-0.1-0.6-0.4-0.5-0.8l0.5-2.9c0.1-0.4,0.4-0.6,0.8-0.5c0.4,0.1,0.6,0.4,0.5,0.8
		l-0.5,2.9C61.2,4,61,4.2,60.6,4.2z"/>
	<path class="st0" d="M60.1,16.2c-0.6,0-1.1-0.1-1.7-0.2c-3.1-0.5-5.1-2.2-4.8-3.9c0.2-0.9,0.9-1.6,2.1-1.9c1.1-0.3,2.4-0.3,3.7-0.1
		c3.1,0.5,5.1,2.2,4.8,3.9c-0.2,0.9-0.9,1.6-2.1,1.9C61.6,16.1,60.9,16.2,60.1,16.2z M57.8,11.3c-0.6,0-1.2,0.1-1.6,0.2
		c-0.7,0.2-1.1,0.5-1.2,0.9c-0.1,0.7,1.3,1.9,3.7,2.4c1.1,0.2,2.3,0.2,3.1-0.1c0.7-0.2,1.1-0.5,1.2-0.9c0.1-0.7-1.3-1.9-3.7-2.4
		C58.7,11.4,58.2,11.3,57.8,11.3z"/>
	<path class="st0" d="M60.6,13.9c-0.6,0-1.1-0.1-1.7-0.2c-3.1-0.5-5.1-2.2-4.8-3.9c0.2-0.9,0.9-1.6,2.1-1.9c1.1-0.3,2.4-0.3,3.7-0.1
		c1.4,0.2,2.6,0.7,3.5,1.4c1,0.8,1.5,1.7,1.4,2.5C64.5,13.1,62.8,13.9,60.6,13.9z M58.2,9c-0.6,0-1.2,0.1-1.6,0.2
		c-0.7,0.2-1.1,0.5-1.2,0.9c-0.1,0.7,1.3,1.9,3.7,2.4c2.5,0.4,4.2-0.3,4.3-0.9c0.1-0.3-0.2-0.8-0.8-1.2c-0.7-0.5-1.8-0.9-2.9-1.1
		C59.1,9,58.6,9,58.2,9z"/>
	<path class="st0" d="M61,11.6c-0.6,0-1.1-0.1-1.7-0.2c-3.1-0.5-5.1-2.2-4.8-3.9c0.3-1.7,2.8-2.6,5.9-2c3.1,0.5,5.1,2.2,4.8,3.9
		C65,10.3,64.2,11,63,11.3C62.4,11.5,61.7,11.6,61,11.6z M58.6,6.7c-1.7,0-2.7,0.5-2.8,1.1c-0.1,0.7,1.3,1.9,3.7,2.4
		c1.1,0.2,2.3,0.2,3.1-0.1c0.7-0.2,1.1-0.5,1.2-0.9c0.1-0.7-1.3-1.9-3.7-2.4C59.5,6.7,59,6.7,58.6,6.7z"/>
	<path class="st0" d="M61.4,9.3c-0.6,0-1.1-0.1-1.7-0.2c-3.1-0.5-5.1-2.2-4.8-3.9C55,4.3,55.7,3.6,57,3.3C58,3,59.3,2.9,60.7,3.2
		c1.4,0.2,2.6,0.7,3.5,1.4c1,0.8,1.5,1.7,1.4,2.5C65.3,8.5,63.6,9.3,61.4,9.3z M59,4.4c-0.6,0-1.2,0.1-1.6,0.2
		c-0.7,0.2-1.1,0.5-1.2,0.9c-0.1,0.7,1.3,1.9,3.7,2.4c2.5,0.4,4.2-0.3,4.3-0.9l0,0c0.1-0.3-0.2-0.8-0.8-1.2
		c-0.7-0.5-1.8-0.9-2.9-1.1C60,4.4,59.5,4.4,59,4.4z"/>
</g>
<path class="st1" d="M93.6,21.1L93.6,21.1l-68-6l0,0.1C13,14.9,2.3,24.4,1.2,37.1C0,50.4,9.8,62.1,23.1,63.3c5.7,0.5,11.1-1,15.5-4
	l34.6,3C77,66,82,68.4,87.7,68.9c13.3,1.2,25-8.7,26.1-21.9C115,34.3,106,23,93.6,21.1z"/>
<path class="st2" d="M7.5,37.5c-1.1,12.3,7.2,23.3,19,25.9c-1,0-2.1,0-3.2-0.1C9.9,62.1,0,50.3,1.2,36.9c1.1-12.8,12-22.4,24.7-22.2
	l0-0.1l6.3,0.5l0,0.1C19.5,15,8.6,24.7,7.5,37.5z"/>
<path class="st3" d="M107.6,46.4c-1.1,12.2-11.1,21.5-23,22c1,0.2,2,0.4,3.1,0.5c13.3,1.2,25-8.7,26.1-21.9
	c1.1-12.7-7.8-24-20.3-25.9l0-0.1l-6.2-0.5l0,0.1C99.8,22.5,108.7,33.7,107.6,46.4z"/>
<circle class="st4" cx="25.2" cy="39.2" r="15.1"/>
<circle class="st4" cx="89.8" cy="44.9" r="15.1"/>
<path class="st5" d="M21,54.6c-3.1-0.8-5.9-2.6-8-5.1c-2.7-3.3-4-7.4-3.7-11.6c0.4-4.2,2.4-8,5.6-10.8s7.4-4,11.6-3.7
	c5.7,0.5,10.7,4,13.1,9.3c0.2,0.3,0,0.7-0.3,0.9c-0.3,0.2-0.7,0-0.9-0.3c-2.2-4.8-6.8-8-12-8.5c-3.9-0.3-7.6,0.9-10.6,3.4
	c-3,2.5-4.8,6-5.1,9.9c-0.3,3.9,0.9,7.6,3.4,10.6c2.5,3,6,4.8,9.9,5.1c3.9,0.3,7.6-0.9,10.6-3.4c3-2.5,4.8-6,5.1-9.9
	c0-0.4,0.4-0.6,0.7-0.6c0.4,0,0.6,0.4,0.6,0.7c-0.4,4.2-2.4,8-5.6,10.8c-3.3,2.7-7.4,4-11.6,3.7C22.9,55,21.9,54.8,21,54.6z"/>
<path class="st5" d="M83.7,59.6C83.7,59.5,83.7,59.5,83.7,59.6c-6.5-2.7-10.3-9.2-9.7-16c0.4-4.2,2.4-8,5.6-10.8
	c3.3-2.7,7.4-4,11.6-3.7c4.2,0.4,8,2.4,10.8,5.6c2.7,3.3,4,7.4,3.7,11.6c-0.4,4.2-2.4,8-5.6,10.8c-3.3,2.7-7.4,4-11.6,3.7
	c-0.4,0-0.6-0.4-0.6-0.7s0.4-0.6,0.7-0.6c3.9,0.3,7.6-0.9,10.6-3.4c3-2.5,4.8-6,5.1-9.9c0.3-3.9-0.9-7.6-3.4-10.6
	c-2.5-3-6-4.8-9.9-5.1c-3.9-0.3-7.6,0.9-10.6,3.4c-3,2.5-4.8,6-5.1,9.9c-0.6,6.3,3,12.2,8.8,14.7c0.3,0.1,0.5,0.5,0.4,0.9
	C84.4,59.5,84,59.6,83.7,59.6z"/>
<polygon class="st6" points="35.4,37.1 28.5,36.4 29.1,29.5 23,29 22.4,35.9 15.5,35.3 14.9,41.4 21.9,42 21.3,48.9 27.4,49.5 
	28,42.6 34.9,43.2 "/>
<g>
	<path class="st6" d="M96,42l-10,2.1c-2.3,0.5-4.5-1.4-4.3-3.8l0,0c0.1-1.6,1.3-2.8,2.8-3.2l10-2.1c2.3-0.5,4.5,1.4,4.3,3.8l0,0
		C98.7,40.4,97.6,41.6,96,42z"/>
	<path class="st6" d="M95.1,52.7l-10,2.1c-2.3,0.5-4.5-1.4-4.3-3.8l0,0c0.1-1.6,1.3-2.8,2.8-3.2l10-2.1c2.3-0.5,4.5,1.4,4.3,3.8l0,0
		C97.8,51.1,96.6,52.3,95.1,52.7z"/>
</g>
<path class="st5" d="M21,49.9c-0.5-0.1-0.8-0.6-0.7-1l0.5-5.9l-5.9-0.5c-0.3,0-0.5-0.1-0.7-0.4c-0.2-0.2-0.3-0.5-0.2-0.7l0.5-6.1
	c0-0.5,0.5-1,1.1-0.9l5.9,0.5l0.5-5.9c0-0.3,0.1-0.5,0.4-0.7c0.2-0.2,0.5-0.3,0.7-0.2l6.1,0.5c0.5,0,1,0.5,0.9,1.1l-0.5,5.9l5.9,0.5
	c0.3,0,0.5,0.1,0.7,0.4c0.2,0.2,0.3,0.5,0.2,0.7l-0.5,6.1c0,0.5-0.5,1-1.1,0.9l-5.9-0.5l-0.5,5.9c0,0.3-0.1,0.5-0.4,0.7
	c-0.2,0.2-0.5,0.3-0.7,0.2l-6.1-0.5C21.1,49.9,21.1,49.9,21,49.9z M22.1,41.1c0.5,0.1,0.8,0.6,0.7,1L22.3,48l4.1,0.4l0.5-5.9
	c0-0.5,0.5-1,1.1-0.9l5.9,0.5l0.4-4.1l-5.9-0.5c-0.3,0-0.5-0.1-0.7-0.4c-0.2-0.2-0.3-0.5-0.2-0.7l0.5-5.9l-4.1-0.4L23.4,36
	c0,0.5-0.5,1-1.1,0.9l-5.9-0.5L16,40.5l5.9,0.5C22,41,22.1,41,22.1,41.1z"/>
<g>
	<path class="st5" d="M84.1,45c-0.7-0.2-1.3-0.5-1.8-1c-1.1-1-1.6-2.3-1.5-3.8c0.2-2,1.6-3.6,3.6-4l10-2.1c1.4-0.3,2.9,0.1,3.9,1
		c1.1,1,1.6,2.3,1.5,3.8c-0.2,2-1.6,3.6-3.6,4l0,0l-10,2.1C85.5,45.2,84.8,45.2,84.1,45z M96,36c-0.4-0.1-0.8-0.1-1.2,0l-10,2.1
		c-1.1,0.2-1.9,1.1-2,2.3c-0.1,0.8,0.2,1.6,0.8,2.1c0.6,0.5,1.4,0.8,2.2,0.6l10-2.1c1.1-0.2,1.9-1.1,2-2.3c0.1-0.8-0.2-1.6-0.8-2.1
		C96.7,36.3,96.3,36.1,96,36z"/>
	<path class="st5" d="M83.2,55.7c-0.7-0.2-1.3-0.5-1.8-1c-1.1-1-1.6-2.3-1.5-3.8c0.2-2,1.6-3.6,3.6-4l10-2.1c1.4-0.3,2.9,0.1,3.9,1
		c1.1,1,1.6,2.3,1.5,3.8c-0.2,2-1.6,3.6-3.6,4l0,0l-10,2.1C84.6,55.9,83.8,55.9,83.2,55.7z M95,46.7c-0.4-0.1-0.8-0.1-1.2,0l-10,2.1
		c-1.1,0.2-1.9,1.1-2,2.3c-0.1,0.8,0.2,1.6,0.8,2.1c0.6,0.5,1.4,0.8,2.2,0.6l10-2.1l0,0c1.1-0.2,1.9-1.1,2-2.3
		c0.1-0.8-0.2-1.6-0.8-2.1C95.7,47,95.4,46.8,95,46.7z"/>
</g>
<g>
	<path class="st5" d="M51.4,48.5c-0.5,0-1-0.2-1.3-0.6c-0.5-0.7-0.4-1.7,0.3-2.2l3-2.2c0.7-0.5,1.7-0.4,2.2,0.3
		c0.5,0.7,0.4,1.7-0.3,2.2l-3,2.2C52,48.4,51.7,48.5,51.4,48.5z"/>
	<path class="st5" d="M59.9,49.3c-0.5,0-1-0.2-1.3-0.6c-0.5-0.7-0.4-1.7,0.3-2.2l3-2.2c0.7-0.5,1.7-0.4,2.2,0.3
		c0.5,0.7,0.4,1.7-0.3,2.2l-3,2.2C60.6,49.2,60.3,49.3,59.9,49.3z"/>
</g>
<path class="st5" d="M87.6,69.9c-5.6-0.5-10.8-2.8-14.9-6.6l-33.9-3c-4.7,3-10.3,4.4-15.8,3.9C9.2,63-1,50.8,0.2,37
	c1.1-13,12.1-23,25.1-22.9c0.1,0,0.3-0.1,0.4-0.1l68,5.9c0.2,0,0.3,0.1,0.4,0.1c12.8,2.2,21.9,14,20.7,26.9
	C113.6,60.9,101.4,71.1,87.6,69.9z M38.7,58.3l34.6,3c0.2,0,0.4,0.1,0.6,0.3c3.8,3.7,8.7,5.9,14,6.3c12.7,1.1,23.9-8.3,25-21
	c1.1-12.1-7.5-23-19.4-24.8c-0.1,0-0.2,0-0.3-0.1l-67.3-5.9c-0.1,0-0.2,0-0.3,0c-12.1-0.2-22.4,9-23.4,21.1
	c-1.1,12.7,8.3,23.9,21,25c5.3,0.5,10.4-0.9,14.9-3.8C38.2,58.3,38.4,58.3,38.7,58.3z"/>
</svg>
