<?xml version="1.0" encoding="utf-8"?>
<!-- Generator: Adobe Illustrator 19.1.0, SVG Export Plug-In . SVG Version: 6.00 Build 0)  -->
<svg version="1.1" id="Layer_1" xmlns="http://www.w3.org/2000/svg" xmlns:xlink="http://www.w3.org/1999/xlink" x="0px" y="0px"
	 viewBox="0 0 150 118.8" style="enable-background:new 0 0 150 118.8;" xml:space="preserve">
<style type="text/css">
	.st0{fill:#00AEEF;}
	.st1{fill:#D4EEF6;}
	.st2{fill:#1D5BAA;}
	.st3{fill:#F79448;}
	.st4{fill:#AEAAD4;}
	.st5{fill:#8887B2;}
	.st6{fill:#D1CEE8;}
	.st7{fill:#F4F8E2;}
</style>
<g>
	<path class="st0" d="M68.8,9.4"/>
	<path class="st1" d="M143.8,51.4c-4-4-9.6-6.3-15.7-6.3c-2.5,0-4.9,0.4-7.1,1.1c0.8-2.2,1.4-4.6,1.6-7c0.6-6.6-1.3-13.2-5.4-18.6
		c-4-5.3-9.7-9-16.2-10.3c-0.6-0.2-1.2-0.3-1.8-0.3L83,8.7c-0.3-1.7-1.2-3.2-2.7-4.3c-0.4-2.1-2-3.8-4.3-4.2C75.7,0,75.4,0,75.1,0
		c0,0,0,0,0,0c-1.9,0-3.6,1-4.5,2.6c-2.3,0.8-4,2.4-4.6,4.6L50.6,5.8c-0.3,0-0.6,0-0.9,0c-0.3,0-0.7,0-1,0.1
		C42.2,6,36,8.5,31.2,12.9c-5,4.6-8.1,10.8-8.7,17.6c-0.1,1.1-0.1,2.2-0.1,3.3c-1.5-0.9-3.3-1.3-5.2-1.3h-6.8
		C4.6,32.4,0,36.9,0,42.7v37.7C0,86,1.7,91.1,4.8,95.1c-0.2,0.4-0.3,0.9-0.4,1.4l0,0.1l0,0.1l-1.5,7.4l0,0l0,0
		c-0.7,4.3,0,7.9,2,10.4c1.6,1.9,3.9,2.9,6.6,2.9h68.1l0.1,0c2.7,0,5.8,0,8.4-2.2c3.5,2.2,7.6,3.4,12.2,3.4
		c10.9,0,18.9-6.4,21.2-16.3c2.1,0.6,4.4,1,6.8,1c6.1,0,11.7-2.2,15.7-6.3c4-4,6.2-9.7,6.2-15.8V67.2
		C150,61.1,147.8,55.5,143.8,51.4z M74.7,3.2c0.1,0,0.2,0,0.3,0C74.9,3.1,74.8,3.2,74.7,3.2z M75.5,3.2c-0.1,0-0.3,0-0.4,0
		c0,0,0,0,0,0C75.3,3.1,75.4,3.1,75.5,3.2z M74.6,3.2c-0.1,0-0.2,0-0.2,0.1C74.4,3.3,74.5,3.2,74.6,3.2z M74.2,3.4
		c-0.1,0-0.1,0.1-0.2,0.1C74,3.4,74.1,3.4,74.2,3.4z M73.8,3.6c-0.1,0-0.1,0.1-0.2,0.1C73.7,3.7,73.8,3.6,73.8,3.6z M73.6,3.8
		c-0.1,0.1-0.1,0.1-0.1,0.2C73.5,3.9,73.5,3.9,73.6,3.8z M73,4.9c0-0.1,0.1-0.3,0.1-0.4C73.1,4.6,73.1,4.7,73,4.9z M73.2,4.4
		c0-0.1,0.1-0.2,0.1-0.2C73.3,4.2,73.2,4.3,73.2,4.4z"/>
	<path class="st2" d="M30.3,85.3c0.9,0,1.3,0.4,1.3,1.3v6c0,0.8-0.4,1.3-1.3,1.3h-8.5c-8,0-12.7-5.7-12.7-13.5V42.7
		c0-0.8,0.4-1.3,1.3-1.3h6.8c0.9,0,1.3,0.4,1.3,1.3V80c0,3.5,1.9,5.4,4.1,5.4H30.3z"/>
	<path class="st2" d="M32.2,81.5c0-6.7,5.1-11.6,12.5-11.6h3.8v-3.3c0-2.3-1.2-3.8-3.4-3.8c-2.3,0-3.3,1.5-3.4,3.4
		c-0.1,0.8-0.5,1-1.4,1H34c-0.8,0-1.3-0.5-1.3-1.4c0.6-6.9,5.4-11.6,12.4-11.6c7.5,0,12.4,5.3,12.4,13v14.7
		c0,7.4-4.5,12.4-12.3,12.4C37.4,94.3,32.2,89.1,32.2,81.5z M48.5,82v-4.1h-3.3c-2.5,0-3.9,1.5-3.9,3.7c0,2.6,1.4,4.2,3.8,4.2
		C47.4,85.7,48.5,84.3,48.5,82z"/>
	<path class="st2" d="M60,92.1V67.2c0-7.7,5-13,12.5-13c7.5,0,12.5,5.3,12.5,13v24.9c0,0.9-0.5,1.4-1.3,1.4h-6.4
		c-0.8,0-1.4-0.5-1.4-1.4V66.7c0-2.4-1.3-4-3.4-4c-2.2,0-3.5,1.6-3.5,4v25.4c0,0.9-0.5,1.4-1.3,1.4h-6.4C60.5,93.5,60,93,60,92.1z"
		/>
	<path class="st2" d="M112.9,67.2v29.6c0,8-4.8,13-12.7,13c-7.5,0-12.3-4.8-12.7-12.7c-0.1-0.9,0.4-1.4,1.3-1.4h6.4
		c0.8,0,1.2,0.5,1.4,1.4c0.2,2.7,1.5,4.1,3.6,4.1c2.3,0,3.7-1.5,3.7-3.9v-6.7c-1.4,1.1-3.1,1.6-4.8,1.6c-6.6,0-11.6-5.2-11.6-13v-12
		c0-7.7,5.1-13,12.8-13C107.8,54.2,112.9,59.5,112.9,67.2z M103.9,79.7v-13c0-2.4-1.4-3.9-3.7-3.9c-2.3,0-3.7,1.5-3.7,3.9v13
		c0,2.4,1.4,3.9,3.7,3.9C102.5,83.7,103.9,82.1,103.9,79.7z"/>
	<path class="st2" d="M115.3,81.4V67.2c0-7.7,5.1-13,12.8-13c7.7,0,12.8,5.3,12.8,13v14.2c0,7.7-5.1,13-12.8,13
		C120.5,94.4,115.3,89.1,115.3,81.4z M131.8,81.9V66.7c0-2.4-1.4-4-3.7-4c-2.3,0-3.7,1.6-3.7,4v15.2c0,2.4,1.4,3.9,3.7,3.9
		C130.4,85.8,131.8,84.3,131.8,81.9z"/>
	<g>
		<g>
			<path class="st3" d="M14.8,99.9c-0.1,0-0.2,0-0.3-0.1c-0.1,0-0.3,0-0.4,0c-0.2,0-0.3,0-0.4,0s-0.2,0-0.3,0.1
				c-0.1,0-0.1,0.1-0.2,0.1c0,0-0.1,0.1-0.1,0.1l-1.7,8.6c0,0,0,0.1,0,0.1c0,0,0.1,0.1,0.1,0.1c0.1,0,0.2,0,0.3,0.1
				c0.1,0,0.3,0,0.4,0c0.2,0,0.3,0,0.4,0c0.1,0,0.2,0,0.3-0.1c0.1,0,0.1-0.1,0.2-0.1s0.1-0.1,0.1-0.1l1.7-8.6c0,0,0-0.1,0-0.1
				C14.9,100,14.9,99.9,14.8,99.9z"/>
		</g>
		<g>
			<path class="st3" d="M21.5,102.6c-0.1-0.2-0.3-0.3-0.5-0.4c-0.2-0.1-0.5-0.1-0.8-0.1c-0.3,0-0.5,0-0.8,0.1
				c-0.3,0.1-0.5,0.2-0.7,0.3c-0.2,0.1-0.4,0.3-0.6,0.5c-0.2,0.2-0.3,0.3-0.4,0.5l0.2-1c0,0,0-0.1,0-0.1c0,0-0.1-0.1-0.1-0.1
				c-0.1,0-0.1,0-0.2,0c-0.1,0-0.2,0-0.4,0c-0.1,0-0.3,0-0.4,0c-0.1,0-0.2,0-0.2,0c-0.1,0-0.1,0-0.1,0.1c0,0-0.1,0.1-0.1,0.1
				l-1.3,6.3c0,0,0,0.1,0,0.1c0,0,0.1,0.1,0.1,0.1c0.1,0,0.1,0,0.3,0.1c0.1,0,0.3,0,0.4,0c0.2,0,0.3,0,0.4,0s0.2,0,0.3-0.1
				c0.1,0,0.1-0.1,0.2-0.1c0,0,0.1-0.1,0.1-0.1l0.6-2.8c0.1-0.3,0.2-0.6,0.3-0.9c0.1-0.3,0.3-0.5,0.5-0.7c0.2-0.2,0.4-0.4,0.6-0.5
				c0.2-0.1,0.4-0.2,0.6-0.2c0.2,0,0.4,0.1,0.4,0.2c0.1,0.1,0.1,0.3,0.1,0.5c0,0.1,0,0.2,0,0.3c0,0.1,0,0.2-0.1,0.3l-0.8,3.7
				c0,0,0,0.1,0,0.1c0,0,0.1,0.1,0.1,0.1c0.1,0,0.1,0,0.3,0.1c0.1,0,0.3,0,0.4,0c0.2,0,0.3,0,0.4,0c0.1,0,0.2,0,0.3-0.1
				c0.1,0,0.1-0.1,0.2-0.1c0,0,0.1-0.1,0.1-0.1l0.8-3.9c0-0.2,0.1-0.3,0.1-0.5c0-0.2,0-0.3,0-0.5c0-0.2,0-0.5-0.1-0.7
				C21.7,102.9,21.6,102.8,21.5,102.6z"/>
		</g>
		<g>
			<path class="st3" d="M30.3,99.4c0,0-0.1-0.1-0.1-0.1c-0.1,0-0.1,0-0.3-0.1c-0.1,0-0.3,0-0.4,0c-0.2,0-0.3,0-0.4,0
				c-0.1,0-0.2,0-0.3,0.1s-0.1,0.1-0.2,0.1c0,0-0.1,0.1-0.1,0.1l-0.7,3.3c-0.1-0.1-0.2-0.2-0.3-0.3c-0.1-0.1-0.2-0.2-0.4-0.2
				c-0.1-0.1-0.3-0.1-0.5-0.2c-0.2,0-0.3-0.1-0.5-0.1c-0.4,0-0.8,0.1-1.1,0.2c-0.3,0.1-0.6,0.3-0.9,0.6c-0.3,0.2-0.5,0.5-0.7,0.8
				c-0.2,0.3-0.3,0.6-0.5,1c-0.1,0.3-0.2,0.7-0.3,1c-0.1,0.3-0.1,0.7-0.1,1c0,0.2,0,0.4,0,0.6c0,0.2,0.1,0.4,0.1,0.5
				c0.1,0.2,0.1,0.3,0.2,0.5c0.1,0.2,0.2,0.3,0.4,0.4c0.1,0.1,0.3,0.2,0.5,0.3c0.2,0.1,0.4,0.1,0.7,0.1c0.3,0,0.5,0,0.8-0.1
				c0.3-0.1,0.5-0.2,0.7-0.3c0.2-0.1,0.4-0.3,0.5-0.5c0.2-0.2,0.3-0.3,0.3-0.5l-0.2,1c0,0.1,0,0.1,0,0.1c0,0,0.1,0.1,0.1,0.1
				c0.1,0,0.1,0,0.2,0c0.1,0,0.2,0,0.4,0c0.3,0,0.5,0,0.6-0.1c0.1,0,0.2-0.1,0.2-0.2l1.8-9.2C30.3,99.5,30.3,99.4,30.3,99.4z
				 M27.4,105.3c-0.1,0.3-0.2,0.6-0.3,0.9c-0.1,0.3-0.3,0.5-0.5,0.7c-0.2,0.2-0.4,0.4-0.6,0.5c-0.2,0.1-0.4,0.2-0.6,0.2
				c-0.3,0-0.4-0.1-0.6-0.3c-0.1-0.2-0.2-0.4-0.2-0.8c0-0.2,0-0.4,0-0.6c0-0.2,0.1-0.4,0.1-0.7c0.1-0.2,0.1-0.4,0.2-0.6
				c0.1-0.2,0.2-0.4,0.3-0.5c0.1-0.2,0.3-0.3,0.4-0.4c0.2-0.1,0.3-0.1,0.5-0.1c0.3,0,0.5,0.1,0.7,0.2c0.2,0.1,0.4,0.3,0.5,0.6
				L27.4,105.3z"/>
		</g>
		<g>
			<path class="st3" d="M33.5,99.5c-0.1,0-0.3,0-0.5,0c-0.2,0-0.4,0-0.5,0c-0.1,0-0.2,0.1-0.3,0.2c-0.1,0.1-0.2,0.2-0.2,0.3
				c-0.1,0.1-0.1,0.3-0.1,0.4c0,0.2-0.1,0.3,0,0.4s0,0.2,0.1,0.3c0.1,0.1,0.2,0.1,0.3,0.2c0.1,0,0.3,0,0.5,0c0.2,0,0.4,0,0.5,0
				c0.1,0,0.3-0.1,0.3-0.2c0.1-0.1,0.2-0.2,0.2-0.3c0.1-0.1,0.1-0.3,0.1-0.4c0-0.2,0-0.3,0-0.4c0-0.1,0-0.2-0.1-0.3
				C33.7,99.6,33.6,99.5,33.5,99.5z"/>
		</g>
		<g>
			<path class="st3" d="M33.1,102.3c-0.1,0-0.1,0-0.3-0.1c-0.1,0-0.3,0-0.4,0c-0.2,0-0.3,0-0.4,0c-0.1,0-0.2,0-0.3,0.1
				c-0.1,0-0.1,0.1-0.2,0.1c0,0-0.1,0.1-0.1,0.1l-1.2,6.2c0,0,0,0.1,0,0.1c0,0,0.1,0.1,0.1,0.1c0.1,0,0.1,0,0.3,0.1
				c0.1,0,0.3,0,0.4,0c0.2,0,0.3,0,0.4,0s0.2,0,0.3-0.1c0.1,0,0.1-0.1,0.2-0.1c0,0,0.1-0.1,0.1-0.1l1.2-6.2c0,0,0-0.1,0-0.1
				C33.2,102.3,33.2,102.3,33.1,102.3z"/>
		</g>
		<g>
			<path class="st3" d="M39.7,102.6c-0.2-0.2-0.4-0.3-0.8-0.4c-0.3-0.1-0.7-0.2-1.1-0.2c-0.5,0-0.9,0.1-1.3,0.2
				c-0.4,0.1-0.7,0.3-1,0.6c-0.3,0.2-0.5,0.5-0.7,0.8c-0.2,0.3-0.4,0.7-0.5,1c-0.1,0.3-0.2,0.7-0.3,1.1c-0.1,0.4-0.1,0.7-0.1,1
				c0,0.4,0.1,0.8,0.2,1.1c0.1,0.3,0.3,0.5,0.5,0.7c0.2,0.2,0.5,0.3,0.8,0.4c0.3,0.1,0.7,0.1,1.2,0.1c0.3,0,0.5,0,0.8,0
				c0.3,0,0.5-0.1,0.7-0.1c0.2,0,0.4-0.1,0.5-0.2c0.1-0.1,0.3-0.1,0.3-0.2c0.1,0,0.1-0.1,0.1-0.2c0-0.1,0.1-0.2,0.1-0.3
				c0-0.1,0-0.2,0.1-0.3c0-0.1,0-0.2,0-0.3c0-0.1,0-0.1,0-0.2c0,0-0.1,0-0.1,0c-0.1,0-0.1,0-0.3,0.1s-0.3,0.1-0.5,0.1
				c-0.2,0.1-0.4,0.1-0.6,0.1c-0.2,0-0.5,0.1-0.8,0.1c-0.4,0-0.8-0.1-0.9-0.3c-0.2-0.2-0.3-0.5-0.3-0.9c0-0.1,0-0.2,0-0.3
				c0-0.1,0-0.2,0-0.3h0.6c0.7,0,1.3-0.1,1.8-0.2s0.9-0.3,1.2-0.4c0.3-0.2,0.6-0.4,0.7-0.7c0.2-0.3,0.2-0.6,0.2-0.9
				c0-0.2,0-0.4-0.1-0.7C40.1,103,39.9,102.8,39.7,102.6z M38.5,104.3c-0.1,0.1-0.2,0.2-0.3,0.3c-0.2,0.1-0.4,0.2-0.6,0.2
				c-0.3,0-0.6,0.1-0.9,0.1H36c0.1-0.2,0.1-0.4,0.2-0.6c0.1-0.2,0.2-0.4,0.4-0.5c0.1-0.1,0.3-0.3,0.5-0.3c0.2-0.1,0.4-0.1,0.6-0.1
				c0.3,0,0.5,0.1,0.6,0.2c0.1,0.1,0.2,0.3,0.2,0.5C38.6,104.1,38.5,104.2,38.5,104.3z"/>
		</g>
		<g>
			<path class="st3" d="M52.9,100.5c-0.1,0-0.2-0.1-0.3-0.2c-0.2-0.1-0.4-0.2-0.6-0.2c-0.2-0.1-0.5-0.1-0.8-0.2
				c-0.3-0.1-0.6-0.1-1-0.1c-0.6,0-1.2,0.1-1.7,0.2c-0.5,0.2-1,0.4-1.4,0.6c-0.4,0.3-0.8,0.6-1.1,1c-0.3,0.4-0.6,0.8-0.8,1.2
				c-0.2,0.4-0.4,0.9-0.5,1.4c-0.1,0.5-0.2,1-0.2,1.5c0,0.6,0.1,1.1,0.3,1.5c0.2,0.4,0.4,0.8,0.8,1.1c0.3,0.3,0.7,0.5,1.2,0.7
				c0.5,0.1,1.1,0.2,1.7,0.2c0.3,0,0.7,0,1-0.1c0.3-0.1,0.6-0.1,0.9-0.2c0.3-0.1,0.5-0.2,0.7-0.2c0.2-0.1,0.3-0.1,0.4-0.2
				c0-0.1,0.1-0.1,0.1-0.2c0-0.1,0.1-0.1,0.1-0.2l0.7-3.6c0-0.2,0-0.3,0-0.4c-0.1-0.1-0.2-0.2-0.3-0.2h-3.1c-0.1,0-0.1,0-0.1,0.1
				c0,0-0.1,0.1-0.1,0.2c0,0.1-0.1,0.1-0.1,0.2c0,0.1,0,0.2-0.1,0.2c0,0.1,0,0.2,0,0.2c0,0.1,0,0.1,0,0.2c0,0.1,0,0.2,0,0.2
				c0,0,0.1,0.1,0.1,0.1h1.7l-0.4,2.1c-0.2,0.1-0.4,0.2-0.6,0.2c-0.2,0-0.5,0.1-0.7,0.1c-0.3,0-0.6,0-0.9-0.1
				c-0.3-0.1-0.5-0.2-0.7-0.4c-0.2-0.2-0.3-0.4-0.4-0.7c-0.1-0.3-0.2-0.6-0.2-0.9c0-0.3,0-0.6,0.1-1c0.1-0.3,0.2-0.7,0.3-1
				c0.1-0.3,0.3-0.6,0.5-0.9c0.2-0.3,0.4-0.5,0.7-0.7c0.3-0.2,0.6-0.4,0.9-0.5c0.3-0.1,0.7-0.2,1.1-0.2s0.7,0,1,0.1
				c0.3,0.1,0.5,0.2,0.7,0.3c0.2,0.1,0.4,0.2,0.5,0.3c0.1,0.1,0.2,0.1,0.3,0.1c0,0,0.1,0,0.1-0.1c0,0,0.1-0.1,0.1-0.2
				c0-0.1,0.1-0.1,0.1-0.2c0-0.1,0-0.2,0.1-0.3s0-0.2,0-0.2c0-0.1,0-0.1,0-0.2c0-0.1,0-0.2,0-0.2C53,100.6,52.9,100.5,52.9,100.5z"
				/>
		</g>
		<g>
			<path class="st3" d="M60.2,102.2c-0.1,0-0.1,0-0.2,0c-0.1,0-0.2,0-0.4,0c-0.3,0-0.5,0-0.6,0.1c-0.1,0-0.2,0.1-0.2,0.2l-0.1,0.6
				c-0.2-0.3-0.5-0.5-0.8-0.7c-0.3-0.2-0.6-0.2-1-0.2c-0.4,0-0.8,0.1-1.1,0.2c-0.3,0.1-0.6,0.3-0.9,0.6c-0.3,0.2-0.5,0.5-0.7,0.9
				c-0.2,0.3-0.3,0.7-0.4,1s-0.2,0.7-0.3,1c-0.1,0.3-0.1,0.7-0.1,1c0,0.3,0,0.6,0.1,0.9c0.1,0.3,0.2,0.5,0.3,0.8
				c0.1,0.2,0.3,0.4,0.6,0.5c0.2,0.1,0.6,0.2,0.9,0.2c0.3,0,0.5,0,0.8-0.1c0.3-0.1,0.5-0.2,0.7-0.3c0.2-0.1,0.4-0.3,0.5-0.5
				c0.2-0.2,0.3-0.3,0.3-0.5l-0.2,1c0,0.1,0,0.1,0,0.1c0,0,0.1,0.1,0.1,0.1c0.1,0,0.1,0,0.2,0c0.1,0,0.2,0,0.4,0
				c0.3,0,0.5,0,0.6-0.1c0.1,0,0.2-0.1,0.2-0.2l1.3-6.3c0,0,0-0.1,0-0.1C60.3,102.3,60.2,102.3,60.2,102.2z M58,105.3
				c-0.1,0.3-0.2,0.6-0.3,0.9c-0.1,0.3-0.3,0.5-0.5,0.7c-0.2,0.2-0.4,0.4-0.6,0.5c-0.2,0.1-0.4,0.2-0.6,0.2c-0.1,0-0.3,0-0.4-0.1
				c-0.1-0.1-0.2-0.1-0.2-0.2c-0.1-0.1-0.1-0.2-0.1-0.3c0-0.1,0-0.3,0-0.4c0-0.2,0-0.4,0-0.6c0-0.2,0.1-0.5,0.1-0.7s0.1-0.4,0.2-0.6
				s0.2-0.4,0.3-0.5c0.1-0.2,0.3-0.3,0.4-0.4c0.2-0.1,0.3-0.1,0.5-0.1c0.3,0,0.5,0.1,0.7,0.2c0.2,0.1,0.4,0.3,0.5,0.6L58,105.3z"/>
		</g>
		<g>
			<path class="st3" d="M71.1,102.6c-0.1-0.2-0.3-0.3-0.5-0.4c-0.2-0.1-0.5-0.1-0.8-0.1c-0.3,0-0.5,0-0.8,0.1
				c-0.2,0.1-0.5,0.2-0.7,0.3c-0.2,0.1-0.4,0.3-0.6,0.5c-0.2,0.2-0.3,0.3-0.4,0.5c0-0.2-0.1-0.4-0.1-0.6c-0.1-0.2-0.2-0.3-0.3-0.5
				c-0.1-0.1-0.3-0.2-0.5-0.3c-0.2-0.1-0.4-0.1-0.7-0.1c-0.3,0-0.5,0-0.8,0.1c-0.2,0.1-0.5,0.2-0.7,0.3c-0.2,0.1-0.4,0.3-0.6,0.5
				s-0.3,0.3-0.4,0.5l0.2-1c0,0,0-0.1,0-0.1c0,0-0.1-0.1-0.1-0.1c-0.1,0-0.1,0-0.2,0c-0.1,0-0.2,0-0.4,0c-0.1,0-0.3,0-0.4,0
				c-0.1,0-0.2,0-0.2,0c-0.1,0-0.1,0-0.1,0.1c0,0-0.1,0.1-0.1,0.1l-1.3,6.3c0,0,0,0.1,0,0.1c0,0,0.1,0.1,0.1,0.1
				c0.1,0,0.1,0,0.3,0.1c0.1,0,0.3,0,0.4,0c0.2,0,0.3,0,0.4,0c0.1,0,0.2,0,0.3-0.1c0.1,0,0.1-0.1,0.2-0.1c0,0,0.1-0.1,0.1-0.1
				l0.6-2.8c0.1-0.3,0.2-0.6,0.3-0.9c0.1-0.3,0.3-0.5,0.5-0.7c0.2-0.2,0.4-0.4,0.6-0.5c0.2-0.1,0.4-0.2,0.6-0.2
				c0.2,0,0.4,0.1,0.4,0.2c0.1,0.1,0.1,0.3,0.1,0.5c0,0.1,0,0.2,0,0.3c0,0.1,0,0.2-0.1,0.3l-0.7,3.7c0,0,0,0.1,0,0.1
				c0,0,0.1,0.1,0.1,0.1c0.1,0,0.1,0,0.3,0.1s0.2,0,0.4,0c0.2,0,0.3,0,0.4,0c0.1,0,0.2,0,0.3-0.1c0.1,0,0.1-0.1,0.2-0.1
				c0,0,0.1-0.1,0.1-0.1l0.6-2.8c0.1-0.3,0.2-0.6,0.3-0.9c0.1-0.3,0.3-0.5,0.5-0.7c0.2-0.2,0.4-0.4,0.6-0.5c0.2-0.1,0.4-0.2,0.6-0.2
				c0.2,0,0.4,0.1,0.4,0.2c0.1,0.1,0.1,0.3,0.1,0.5c0,0.1,0,0.2,0,0.3c0,0.1,0,0.2,0,0.3l-0.7,3.7c0,0,0,0.1,0,0.1
				c0,0,0.1,0.1,0.1,0.1c0.1,0,0.1,0,0.3,0.1c0.1,0,0.3,0,0.4,0c0.2,0,0.3,0,0.4,0c0.1,0,0.2,0,0.3-0.1c0.1,0,0.1-0.1,0.2-0.1
				c0,0,0.1-0.1,0.1-0.1l0.8-3.9c0-0.2,0.1-0.3,0.1-0.5c0-0.2,0-0.3,0-0.5c0-0.3,0-0.5-0.1-0.7C71.3,102.9,71.2,102.7,71.1,102.6z"
				/>
		</g>
		<g>
			<path class="st3" d="M78.3,102.6c-0.2-0.2-0.4-0.3-0.8-0.4c-0.3-0.1-0.7-0.2-1.1-0.2c-0.5,0-0.9,0.1-1.3,0.2
				c-0.4,0.1-0.7,0.3-1,0.6c-0.3,0.2-0.5,0.5-0.7,0.8c-0.2,0.3-0.4,0.7-0.5,1c-0.1,0.3-0.2,0.7-0.3,1.1c-0.1,0.4-0.1,0.7-0.1,1
				c0,0.4,0.1,0.8,0.2,1.1c0.1,0.3,0.3,0.5,0.5,0.7c0.2,0.2,0.5,0.3,0.8,0.4c0.3,0.1,0.7,0.1,1.2,0.1c0.3,0,0.5,0,0.8,0
				c0.3,0,0.5-0.1,0.7-0.1c0.2,0,0.4-0.1,0.5-0.2c0.1-0.1,0.3-0.1,0.3-0.2c0.1,0,0.1-0.1,0.1-0.2c0-0.1,0.1-0.2,0.1-0.3
				c0-0.1,0-0.2,0.1-0.3c0-0.1,0-0.2,0-0.3c0-0.1,0-0.1,0-0.2c0,0-0.1,0-0.1,0c-0.1,0-0.1,0-0.3,0.1c-0.1,0-0.3,0.1-0.5,0.1
				c-0.2,0.1-0.4,0.1-0.6,0.1c-0.2,0-0.5,0.1-0.8,0.1c-0.4,0-0.8-0.1-0.9-0.3c-0.2-0.2-0.3-0.5-0.3-0.9c0-0.1,0-0.2,0-0.3
				c0-0.1,0-0.2,0-0.3h0.6c0.7,0,1.3-0.1,1.8-0.2c0.5-0.1,0.9-0.3,1.2-0.4c0.3-0.2,0.6-0.4,0.7-0.7c0.2-0.3,0.2-0.6,0.2-0.9
				c0-0.2,0-0.4-0.1-0.7C78.6,103,78.5,102.8,78.3,102.6z M77,104.3c-0.1,0.1-0.2,0.2-0.3,0.3c-0.2,0.1-0.4,0.2-0.6,0.2
				c-0.3,0-0.6,0.1-0.9,0.1h-0.6c0.1-0.2,0.1-0.4,0.2-0.6c0.1-0.2,0.2-0.4,0.4-0.5c0.1-0.1,0.3-0.3,0.5-0.3c0.2-0.1,0.4-0.1,0.6-0.1
				c0.3,0,0.5,0.1,0.6,0.2c0.1,0.1,0.2,0.3,0.2,0.5C77.1,104.1,77.1,104.2,77,104.3z"/>
		</g>
		<g>
			<path class="st3" d="M84.5,102.5c0-0.1-0.1-0.1-0.2-0.2c-0.1-0.1-0.2-0.1-0.4-0.1c-0.1,0-0.3-0.1-0.5-0.1c-0.2,0-0.4,0-0.6,0
				c-0.4,0-0.8,0.1-1.2,0.2s-0.6,0.3-0.9,0.5c-0.2,0.2-0.4,0.5-0.6,0.7c-0.1,0.3-0.2,0.6-0.2,0.9c0,0.3,0.1,0.6,0.2,0.8
				s0.3,0.4,0.4,0.5c0.2,0.1,0.4,0.3,0.6,0.3c0.2,0.1,0.4,0.2,0.6,0.3c0.2,0.1,0.3,0.2,0.4,0.3c0.1,0.1,0.2,0.2,0.2,0.4
				c0,0.1,0,0.2-0.1,0.3c0,0.1-0.1,0.2-0.2,0.3c-0.1,0.1-0.2,0.1-0.4,0.2c-0.1,0-0.3,0.1-0.5,0.1c-0.3,0-0.5,0-0.7-0.1
				c-0.2-0.1-0.3-0.1-0.5-0.2c-0.1-0.1-0.2-0.1-0.3-0.2c-0.1-0.1-0.2-0.1-0.2-0.1c0,0-0.1,0-0.1,0.1c0,0-0.1,0.1-0.1,0.2
				c0,0.1-0.1,0.1-0.1,0.2c0,0.1,0,0.2-0.1,0.2c0,0.1,0,0.2,0,0.2s0,0.1,0,0.2c0,0.1,0,0.1,0,0.2c0,0,0,0.1,0.1,0.1
				c0.1,0.1,0.1,0.1,0.3,0.2s0.2,0.1,0.4,0.2c0.2,0,0.3,0.1,0.5,0.1c0.2,0,0.4,0,0.6,0c0.5,0,0.9-0.1,1.3-0.2s0.7-0.3,0.9-0.5
				c0.3-0.2,0.5-0.5,0.6-0.8c0.1-0.3,0.2-0.6,0.2-1c0-0.3-0.1-0.6-0.2-0.8c-0.1-0.2-0.3-0.4-0.4-0.5c-0.2-0.1-0.4-0.3-0.6-0.4
				c-0.2-0.1-0.4-0.2-0.6-0.3c-0.2-0.1-0.3-0.2-0.4-0.3c-0.1-0.1-0.2-0.2-0.2-0.4c0-0.1,0-0.2,0.1-0.3c0-0.1,0.1-0.2,0.2-0.3
				c0.1-0.1,0.2-0.1,0.3-0.2c0.1,0,0.3-0.1,0.4-0.1c0.2,0,0.4,0,0.6,0.1c0.2,0,0.3,0.1,0.4,0.1c0.1,0.1,0.2,0.1,0.3,0.1
				s0.2,0.1,0.2,0.1c0.1,0,0.1,0,0.2-0.1c0-0.1,0.1-0.2,0.1-0.3c0-0.1,0.1-0.2,0.1-0.3c0-0.1,0-0.2,0-0.2
				C84.5,102.6,84.5,102.5,84.5,102.5z"/>
		</g>
	</g>
	<path class="st4" d="M98.4,19.9L98.4,19.9l-48.6-4.3l0,0c-9-0.2-16.7,6.7-17.5,15.7c-0.8,9.5,6.2,17.9,15.7,18.7
		c4.1,0.4,7.9-0.7,11.1-2.8l24.7,2.2c2.7,2.6,6.4,4.4,10.4,4.7c9.5,0.8,17.9-6.2,18.7-15.7C113.6,29.3,107.2,21.3,98.4,19.9z"/>
	<path class="st5" d="M36.7,31.6c-0.8,8.8,5.2,16.7,13.6,18.5c-0.7,0-1.5,0-2.3-0.1c-9.6-0.8-16.7-9.3-15.8-18.9
		c0.8-9.2,8.6-16,17.6-15.9l0,0l4.5,0.4l0,0C45.3,15.5,37.5,22.4,36.7,31.6z"/>
	<path class="st6" d="M108.4,38c-0.8,8.7-7.9,15.4-16.4,15.7c0.7,0.2,1.5,0.3,2.2,0.3c9.5,0.8,17.9-6.2,18.7-15.7
		c0.8-9.1-5.6-17.1-14.5-18.5l0,0l-4.5-0.4l0,0C102.8,20.9,109.2,28.9,108.4,38z"/>
	<circle class="st3" cx="49.4" cy="32.8" r="10.8"/>
	<circle class="st3" cx="95.7" cy="36.9" r="10.8"/>
	<path class="st2" d="M46.4,43.8c-2.2-0.6-4.2-1.9-5.7-3.7c-2-2.3-2.9-5.3-2.6-8.3c0.3-3,1.7-5.8,4-7.7c2.3-2,5.3-2.9,8.3-2.6
		c4.1,0.4,7.7,2.9,9.4,6.6c0.1,0.2,0,0.5-0.2,0.6c-0.2,0.1-0.5,0-0.6-0.2c-1.6-3.4-4.8-5.7-8.6-6.1c-2.8-0.2-5.5,0.6-7.6,2.4
		c-2.1,1.8-3.4,4.3-3.7,7.1c-0.2,2.8,0.6,5.5,2.4,7.6c1.8,2.1,4.3,3.4,7.1,3.7c2.8,0.2,5.5-0.6,7.6-2.4c2.1-1.8,3.4-4.3,3.7-7.1
		c0-0.3,0.3-0.5,0.5-0.4c0.3,0,0.5,0.3,0.4,0.5c-0.3,3-1.7,5.8-4,7.7c-2.3,2-5.3,2.9-8.3,2.6C47.7,44.1,47.1,44,46.4,43.8z"/>
	<path class="st2" d="M91.3,47.4C91.3,47.4,91.2,47.4,91.3,47.4c-4.6-2-7.4-6.6-7-11.5c0.3-3,1.7-5.8,4-7.7c2.3-2,5.3-2.9,8.3-2.6
		c3,0.3,5.8,1.7,7.7,4c2,2.3,2.9,5.3,2.6,8.3c-0.3,3-1.7,5.8-4,7.7c-2.3,2-5.3,2.9-8.3,2.6c-0.3,0-0.5-0.3-0.4-0.5
		c0-0.3,0.3-0.5,0.5-0.4c2.8,0.2,5.5-0.6,7.6-2.4c2.1-1.8,3.4-4.3,3.7-7.1c0.2-2.8-0.6-5.5-2.4-7.6c-1.8-2.1-4.3-3.4-7.1-3.7
		c-2.8-0.2-5.5,0.6-7.6,2.4c-2.1,1.8-3.4,4.3-3.7,7.1c-0.4,4.5,2.1,8.7,6.3,10.5c0.2,0.1,0.4,0.4,0.3,0.6
		C91.8,47.3,91.5,47.4,91.3,47.4z"/>
	<polygon class="st7" points="56.7,31.3 51.8,30.9 52.2,25.9 47.8,25.5 47.4,30.5 42.5,30 42.1,34.4 47,34.8 46.6,39.8 51,40.2 
		51.4,35.2 56.3,35.7 	"/>
	<g>
		<path class="st7" d="M100.1,34.8l-7.2,1.5c-1.7,0.3-3.2-1-3-2.7l0,0c0.1-1.1,0.9-2,2-2.3l7.2-1.5c1.7-0.3,3.2,1,3,2.7l0,0
			C102,33.6,101.2,34.6,100.1,34.8z"/>
		<path class="st7" d="M99.4,42.5L92.3,44c-1.7,0.3-3.2-1-3-2.7l0,0c0.1-1.1,0.9-2,2-2.3l7.2-1.5c1.7-0.3,3.2,1,3,2.7l0,0
			C101.3,41.3,100.5,42.2,99.4,42.5z"/>
	</g>
	<path class="st2" d="M46.4,40.5c-0.3-0.1-0.6-0.4-0.5-0.8l0.4-4.2L42,35.1c-0.2,0-0.4-0.1-0.5-0.3s-0.2-0.3-0.2-0.5l0.4-4.4
		c0-0.4,0.4-0.7,0.8-0.6l4.2,0.4l0.4-4.2c0-0.2,0.1-0.4,0.3-0.5s0.3-0.2,0.5-0.2l4.4,0.4c0.4,0,0.7,0.4,0.6,0.8l-0.4,4.2l4.2,0.4
		c0.2,0,0.4,0.1,0.5,0.3c0.1,0.1,0.2,0.3,0.2,0.5l-0.4,4.4c0,0.4-0.4,0.7-0.8,0.6L52,36l-0.4,4.2c0,0.2-0.1,0.4-0.3,0.5
		c-0.1,0.1-0.3,0.2-0.5,0.2l-4.4-0.4C46.5,40.5,46.4,40.5,46.4,40.5z M47.2,34.2c0.3,0.1,0.6,0.4,0.5,0.8l-0.4,4.2l2.9,0.3l0.4-4.2
		c0-0.4,0.4-0.7,0.8-0.6l4.2,0.4l0.3-2.9l-4.2-0.4c-0.2,0-0.4-0.1-0.5-0.3c-0.1-0.1-0.2-0.3-0.2-0.5l0.4-4.2l-2.9-0.3l-0.4,4.2
		c0,0.4-0.4,0.7-0.8,0.6l-4.2-0.4l-0.3,2.9l4.2,0.4C47.1,34.1,47.2,34.1,47.2,34.2z"/>
	<g>
		<path class="st2" d="M91.6,37c-0.5-0.1-0.9-0.4-1.3-0.7c-0.8-0.7-1.2-1.7-1.1-2.7c0.1-1.4,1.2-2.6,2.6-2.9l7.2-1.5
			c1-0.2,2,0.1,2.8,0.7c0.8,0.7,1.2,1.7,1.1,2.7c-0.1,1.4-1.2,2.6-2.6,2.9l0,0L93.1,37C92.6,37.1,92,37.1,91.6,37z M100,30.6
			c-0.3-0.1-0.6-0.1-0.8,0L92,32c-0.8,0.2-1.4,0.8-1.4,1.6c-0.1,0.6,0.2,1.1,0.6,1.5c0.4,0.4,1,0.5,1.6,0.4l7.2-1.5
			c0.8-0.2,1.4-0.8,1.4-1.6c0.1-0.6-0.2-1.1-0.6-1.5C100.6,30.8,100.3,30.6,100,30.6z"/>
		<path class="st2" d="M90.9,44.6c-0.5-0.1-0.9-0.4-1.3-0.7c-0.8-0.7-1.2-1.7-1.1-2.7c0.1-1.4,1.2-2.6,2.6-2.9l7.2-1.5
			c1-0.2,2,0.1,2.8,0.7c0.8,0.7,1.2,1.7,1.1,2.7c-0.1,1.4-1.2,2.6-2.6,2.9l0,0l-7.2,1.5C91.9,44.8,91.4,44.7,90.9,44.6z M99.4,38.2
			c-0.3-0.1-0.6-0.1-0.8,0l-7.2,1.5c-0.8,0.2-1.4,0.8-1.4,1.6c-0.1,0.6,0.2,1.1,0.6,1.5c0.4,0.4,1,0.5,1.6,0.4l7.2-1.5l0,0
			c0.8-0.2,1.4-0.8,1.4-1.6c0.1-0.6-0.2-1.1-0.6-1.5C99.9,38.4,99.6,38.3,99.4,38.2z"/>
	</g>
	<g>
		<path class="st2" d="M68.2,39.5c-0.3,0-0.7-0.2-0.9-0.5c-0.4-0.5-0.3-1.2,0.2-1.6l2.1-1.6c0.5-0.4,1.2-0.3,1.6,0.2
			c0.4,0.5,0.3,1.2-0.2,1.6l-2.1,1.6C68.6,39.4,68.4,39.5,68.2,39.5z"/>
		<path class="st2" d="M74.3,40c-0.3,0-0.7-0.2-0.9-0.5c-0.4-0.5-0.3-1.2,0.2-1.6l2.1-1.6c0.5-0.4,1.2-0.3,1.6,0.2
			c0.4,0.5,0.3,1.2-0.2,1.6l-2.1,1.6C74.7,40,74.5,40,74.3,40z"/>
	</g>
	<path class="st2" d="M94.1,54.8c-4-0.3-7.8-2-10.7-4.7l-24.2-2.1c-3.3,2.2-7.4,3.2-11.3,2.8c-9.9-0.9-17.2-9.6-16.3-19.5
		c0.8-9.3,8.7-16.4,18-16.4c0.1,0,0.2-0.1,0.3,0l48.6,4.3c0.1,0,0.2,0,0.3,0.1c9.1,1.6,15.7,10,14.8,19.3
		C112.7,48.3,104,55.7,94.1,54.8z M59,46.5l24.7,2.2c0.2,0,0.3,0.1,0.4,0.2c2.7,2.6,6.2,4.2,10,4.5c9.1,0.8,17.1-5.9,17.9-15
		c0.8-8.6-5.3-16.4-13.9-17.8c-0.1,0-0.1,0-0.2-0.1l-48.1-4.2c-0.1,0-0.1,0-0.2,0c-8.6-0.2-16,6.5-16.8,15.1
		c-0.8,9.1,5.9,17.1,15,17.9c3.8,0.3,7.5-0.6,10.6-2.7C58.7,46.5,58.9,46.5,59,46.5z"/>
	<path class="st2" d="M78.3,9.8c0.1-0.6-0.2-1.3-1-1.8c-0.5-0.4-1.2-0.7-2-0.9l0.3-1.8c0-0.3-0.1-0.5-0.4-0.6
		c-0.3,0-0.5,0.1-0.6,0.4L74.3,7c-0.8-0.1-1.6,0-2.2,0.1c-0.9,0.3-1.4,0.7-1.5,1.4c-0.1,0.3,0,0.6,0.1,0.9c-0.2,0.2-0.4,0.5-0.4,0.8
		c-0.1,0.3,0,0.6,0.1,0.9c-0.2,0.2-0.4,0.5-0.4,0.8c-0.1,0.3,0,0.6,0.1,0.9c-0.2,0.2-0.4,0.5-0.4,0.8c-0.2,1.1,1.1,2.2,3,2.7
		c0,0,0,0,0,0l-0.2,1.4c0,0.3,0.1,0.5,0.4,0.6c0,0,0.1,0,0.1,0c0.2,0,0.4-0.2,0.5-0.4l0.2-1.4c0,0,0,0,0,0c0.3,0,0.5,0,0.8,0
		c0.5,0,1-0.1,1.4-0.2c0.9-0.3,1.4-0.7,1.5-1.4c0.1-0.3,0-0.6-0.1-0.9c0.2-0.2,0.4-0.5,0.4-0.8c0.1-0.3,0-0.6-0.1-0.9
		c0.2-0.2,0.4-0.5,0.4-0.8c0.1-0.3,0-0.6-0.1-0.9C78.1,10.4,78.2,10.1,78.3,9.8z M72.4,8c0.3-0.1,0.7-0.1,1.2-0.1
		c0.3,0,0.7,0,1.1,0.1c0.8,0.1,1.6,0.4,2.1,0.8c0.4,0.3,0.6,0.6,0.6,0.9c0,0.1,0,0.1-0.1,0.2c-0.6-0.5-1.6-1-2.7-1.2
		c-1.1-0.2-2.2-0.1-2.9,0.2c0-0.1,0-0.1,0-0.2C71.6,8.4,71.9,8.2,72.4,8z M76.7,13c0,0.1,0,0.1-0.1,0.2c-0.1-0.1-0.2-0.2-0.3-0.3
		c0,0,0.1,0,0.1,0c0.1,0,0.2-0.1,0.3-0.1C76.7,12.9,76.7,12.9,76.7,13z M71,12c0-0.1,0-0.1,0.1-0.2c0.1,0.1,0.2,0.2,0.3,0.3
		c0,0-0.1,0-0.1,0c-0.1,0-0.2,0.1-0.3,0.1C71,12.1,71,12,71,12z M71.3,10.3c0-0.1,0-0.1,0.1-0.2c0.1,0.1,0.2,0.2,0.3,0.3
		c0,0-0.1,0-0.1,0c-0.1,0-0.2,0.1-0.3,0.1C71.3,10.4,71.3,10.4,71.3,10.3z M73.9,12c-0.8-0.1-1.4-0.4-1.9-0.7
		c0.3-0.1,0.6-0.1,0.9-0.1c0.3,0,0.7,0,1.1,0.1c0.7,0.1,1.4,0.4,1.9,0.7C75.4,12.1,74.7,12.1,73.9,12z M72.7,12.9
		c0.3,0,0.7,0,1.1,0.1c0.8,0.1,1.4,0.4,1.9,0.7c-0.5,0.1-1.2,0.1-2,0c-0.8-0.1-1.4-0.4-1.9-0.7C72.1,12.9,72.4,12.9,72.7,12.9z
		 M74.2,10.3c-0.8-0.1-1.4-0.4-1.9-0.7c0.3-0.1,0.6-0.1,1-0.1c0.3,0,0.7,0,1.1,0.1c0.8,0.1,1.4,0.4,1.9,0.7
		C75.7,10.5,75,10.5,74.2,10.3z M76.4,14.6c0,0.2-0.4,0.5-0.8,0.6c-0.6,0.2-1.4,0.2-2.2,0.1c-1.8-0.3-2.8-1.2-2.7-1.7
		c0-0.1,0-0.1,0.1-0.2c0.6,0.5,1.6,1,2.7,1.2c0.4,0.1,0.9,0.1,1.2,0.1c0.6,0,1.2-0.1,1.7-0.3C76.4,14.5,76.5,14.6,76.4,14.6z
		 M77,11.3c0,0.1,0,0.1-0.1,0.2c-0.1-0.1-0.1-0.1-0.2-0.2c0,0-0.1-0.1-0.1-0.1c0.1,0,0.3-0.1,0.4-0.1C77,11.2,77,11.3,77,11.3z"/>
</g>
</svg>
