<?xml version="1.0" encoding="utf-8"?>
<!-- Generator: Adobe Illustrator 19.1.0, SVG Export Plug-In . SVG Version: 6.00 Build 0)  -->
<svg version="1.1" id="Layer_1" xmlns="http://www.w3.org/2000/svg" xmlns:xlink="http://www.w3.org/1999/xlink" x="0px" y="0px"
	 viewBox="-160.7 357.7 110 87.1" style="enable-background:new -160.7 357.7 110 87.1;" xml:space="preserve">
<style type="text/css">
	.st0{fill:#00AEEF;}
	.st1{fill:#1D5BAA;}
	.st2{fill:#F79448;}
	.st3{fill:#AEAAD4;}
	.st4{fill:#8887B2;}
	.st5{fill:#D1CEE8;}
	.st6{fill:#F4F8E2;}
</style>
<path class="st0" d="M-110.9,361.5"/>
<path class="st1" d="M-143,424.9c0.7,0,1.1,0.4,1.1,1.1v5c0,0.7-0.4,1.1-1.1,1.1h-7.1c-6.7,0-10.6-4.8-10.6-11.2v-31.5
	c0-0.7,0.4-1.1,1.1-1.1h5.7c0.7,0,1.1,0.4,1.1,1.1v31.1c0,2.9,1.6,4.5,3.4,4.5L-143,424.9L-143,424.9z"/>
<path class="st1" d="M-141.4,421.7c0-5.6,4.2-9.7,10.4-9.7h3.2v-2.7c0-1.9-1-3.2-2.9-3.2s-2.7,1.2-2.8,2.8c-0.1,0.7-0.5,0.8-1.2,0.8
	h-5.2c-0.7,0-1.1-0.4-1.1-1.2c0.5-5.8,4.5-9.7,10.4-9.7c6.3,0,10.4,4.4,10.4,10.8v12.3c0,6.2-3.8,10.4-10.2,10.4
	C-137.1,432.4-141.4,428-141.4,421.7z M-127.8,422.1v-3.5h-2.8c-2.1,0-3.3,1.2-3.3,3.1c0,2.2,1.2,3.5,3.2,3.5
	C-128.8,425.2-127.8,424-127.8,422.1z"/>
<path class="st1" d="M-118.3,430.5v-20.8c0-6.4,4.2-10.8,10.4-10.8c6.3,0,10.4,4.4,10.4,10.8v20.8c0,0.8-0.4,1.2-1.1,1.2h-5.3
	c-0.7,0-1.2-0.4-1.2-1.2v-21.1c0-2-1.1-3.3-2.9-3.3c-1.9,0-2.9,1.3-2.9,3.3v21.2c0,0.8-0.4,1.2-1.1,1.2h-5.3
	C-117.9,431.7-118.3,431.3-118.3,430.5z"/>
<path class="st1" d="M-74.1,409.7v24.7c0,6.7-4,10.8-10.6,10.8c-6.3,0-10.2-4-10.6-10.6c-0.1-0.8,0.3-1.2,1.1-1.2h5.4
	c0.6,0,1,0.4,1.2,1.2c0.2,2.2,1.3,3.5,3,3.5c1.9,0,3.1-1.2,3.1-3.3v-5.6c-1.2,0.9-2.6,1.3-4,1.3c-5.5,0-9.7-4.3-9.7-10.8v-10
	c0-6.4,4.3-10.8,10.7-10.8C-78.4,398.9-74.1,403.4-74.1,409.7z M-81.7,420.2v-10.8c0-2-1.2-3.3-3.1-3.3s-3.1,1.3-3.1,3.3v10.9
	c0,2,1.2,3.3,3.1,3.3C-82.8,423.5-81.7,422.2-81.7,420.2z"/>
<path class="st1" d="M-72.1,421.6v-11.9c0-6.4,4.3-10.8,10.7-10.8s10.7,4.4,10.7,10.8v11.8c0,6.5-4.3,10.9-10.7,10.9
	S-72.1,428-72.1,421.6z M-58.4,422v-12.6c0-2-1.2-3.3-3.1-3.3c-1.9,0-3.1,1.3-3.1,3.3v12.7c0,2,1.2,3.3,3.1,3.3
	C-59.5,425.3-58.4,424-58.4,422z"/>
<g>
	<g>
		<path class="st2" d="M-156,437c-0.1,0-0.1,0-0.2,0c-0.1,0-0.2,0-0.4,0c-0.1,0-0.3,0-0.4,0c-0.1,0-0.2,0-0.2,0
			c-0.1,0-0.1,0-0.1,0.1l-0.1,0.1l-1.4,7.2v0.1l0.1,0.1c0.1,0,0.1,0,0.2,0c0.1,0,0.2,0,0.4,0c0.1,0,0.3,0,0.4,0c0.1,0,0.2,0,0.2,0
			c0.1,0,0.1,0,0.1-0.1l0.1-0.1l1.4-7.2v-0.1C-155.9,437.1-155.9,437.1-156,437z"/>
	</g>
	<g>
		<path class="st2" d="M-150.4,439.3c-0.1-0.1-0.3-0.2-0.5-0.3c-0.2-0.1-0.4-0.1-0.7-0.1c-0.2,0-0.4,0-0.7,0.1
			c-0.2,0.1-0.4,0.2-0.6,0.3s-0.3,0.2-0.5,0.4c-0.1,0.1-0.2,0.3-0.3,0.4l0.2-0.9v-0.1c0,0,0-0.1-0.1-0.1c0,0-0.1,0-0.2,0
			c-0.1,0-0.2,0-0.3,0s-0.2,0-0.3,0s-0.2,0-0.2,0c-0.1,0-0.1,0-0.1,0.1v0.1l-1,5.2v0.1c0,0,0,0.1,0.1,0.1s0.1,0,0.2,0
			c0.1,0,0.2,0,0.4,0c0.1,0,0.3,0,0.4,0s0.2,0,0.2,0c0.1,0,0.1,0,0.1-0.1c0,0,0-0.1,0.1-0.1l0.5-2.4c0.1-0.3,0.1-0.5,0.3-0.7
			c0.1-0.2,0.3-0.4,0.4-0.6c0.2-0.2,0.3-0.3,0.5-0.4s0.3-0.2,0.5-0.2s0.3,0.1,0.4,0.2c0,0.1,0,0.2,0,0.4c0,0.1,0,0.2,0,0.3
			c0,0.1,0,0.2,0,0.3l-0.6,3.1v0.1l0.1,0.1c0.1,0,0.1,0,0.2,0c0.1,0,0.2,0,0.4,0c0.1,0,0.3,0,0.4,0s0.2,0,0.2,0c0.1,0,0.1,0,0.1-0.1
			c0,0,0-0.1,0.1-0.1l0.6-3.2c0-0.1,0-0.3,0.1-0.4c0-0.1,0-0.3,0-0.4c0-0.2,0-0.4-0.1-0.6C-150.2,439.6-150.3,439.4-150.4,439.3z"/>
	</g>
	<g>
		<path class="st2" d="M-143,436.6C-143,436.6-143.1,436.6-143,436.6c-0.2-0.1-0.2-0.1-0.3-0.1s-0.2,0-0.4,0c-0.1,0-0.3,0-0.4,0
			s-0.2,0-0.2,0s-0.1,0-0.1,0.1c0,0,0,0.1-0.1,0.1l-0.6,2.8c-0.1-0.1-0.1-0.2-0.2-0.2c-0.1-0.1-0.2-0.1-0.3-0.2s-0.2-0.1-0.4-0.1
			c-0.1,0-0.3,0-0.4,0c-0.3,0-0.7,0.1-0.9,0.2c-0.3,0.1-0.5,0.3-0.7,0.5s-0.4,0.4-0.5,0.7c-0.2,0.3-0.3,0.5-0.4,0.8
			c-0.1,0.3-0.2,0.6-0.2,0.9s-0.1,0.6-0.1,0.8s0,0.3,0,0.5s0.1,0.3,0.1,0.5c0,0.1,0.1,0.3,0.2,0.4c0.1,0.1,0.2,0.2,0.3,0.3
			c0.1,0.1,0.3,0.2,0.4,0.2c0.2-0.1,0.3-0.1,0.6-0.1c0.2,0,0.4,0,0.7-0.1c0.2-0.1,0.4-0.2,0.6-0.3s0.3-0.2,0.5-0.4
			c0.1-0.1,0.2-0.3,0.3-0.4l-0.2,0.8v0.1c0,0,0,0.1,0.1,0.1c0,0,0.1,0,0.2,0c0.1,0,0.2,0,0.3,0c0.2,0,0.4,0,0.5-0.1
			c0.1,0,0.2-0.1,0.2-0.2l1.5-7.7C-143,436.7-143,436.6-143,436.6z M-145.4,441.5c-0.1,0.3-0.1,0.5-0.3,0.8
			c-0.1,0.2-0.3,0.4-0.4,0.6c-0.2,0.2-0.3,0.3-0.5,0.4s-0.4,0.2-0.5,0.2c-0.2,0-0.4-0.1-0.5-0.2s-0.1-0.4-0.1-0.7c0-0.2,0-0.3,0-0.5
			s0.1-0.4,0.1-0.6c0.1-0.2,0.1-0.4,0.2-0.5c0.1-0.2,0.2-0.3,0.3-0.4s0.2-0.2,0.4-0.3c0.1-0.1,0.3-0.1,0.4-0.1
			c0.2,0,0.4,0.1,0.6,0.2c0.2,0.1,0.3,0.3,0.5,0.5L-145.4,441.5z"/>
	</g>
	<g>
		<path class="st2" d="M-140.4,436.7c-0.1,0-0.2,0-0.4,0s-0.3,0-0.4,0c-0.1,0-0.2,0.1-0.3,0.1c-0.1,0.1-0.1,0.1-0.2,0.2
			c0,0.1-0.1,0.2-0.1,0.4c0,0.1,0,0.3,0,0.4s0,0.2,0.1,0.2c0.1,0.1,0.1,0.1,0.2,0.1c0.1,0,0.2,0,0.4,0s0.3,0,0.4,0
			c0.1,0,0.2-0.1,0.3-0.1c0.1-0.1,0.1-0.1,0.2-0.2c0-0.1,0.1-0.2,0.1-0.4c0-0.1,0-0.3,0-0.4s0-0.2-0.1-0.2
			C-140.2,436.8-140.3,436.7-140.4,436.7z"/>
	</g>
	<g>
		<path class="st2" d="M-140.7,439c-0.1,0-0.1,0-0.2,0c-0.1,0-0.2,0-0.4,0c-0.1,0-0.3,0-0.4,0c-0.1,0-0.2,0-0.2,0
			c-0.1,0-0.1,0-0.1,0.1c0,0,0,0.1-0.1,0.1l-1,5.2v0.1c0,0,0,0.1,0.1,0.1s0.1,0,0.2,0c0.1,0,0.2,0,0.4,0c0.1,0,0.3,0,0.4,0
			c0.1,0,0.2,0,0.2,0c0.1,0,0.1,0,0.1-0.1c0,0,0-0.1,0.1-0.1l1-5.2v-0.1C-140.6,439.1-140.6,439-140.7,439z"/>
	</g>
	<g>
		<path class="st2" d="M-135.2,439.3c-0.2-0.1-0.4-0.2-0.6-0.3c-0.3-0.1-0.6-0.1-0.9-0.1c-0.4,0-0.8,0.1-1.1,0.2s-0.6,0.3-0.8,0.5
			s-0.5,0.4-0.6,0.7c-0.2,0.3-0.3,0.5-0.4,0.8s-0.2,0.6-0.2,0.9s-0.1,0.6-0.1,0.8c0,0.3,0,0.6,0.1,0.9c0.1,0.2,0.2,0.5,0.4,0.6
			c0.2,0.2,0.4,0.3,0.7,0.4s0.6,0.1,1,0.1c0.2,0,0.4,0,0.7,0c0.2,0,0.4-0.1,0.6-0.1s0.3-0.1,0.5-0.1c0.1,0,0.2-0.1,0.3-0.1
			c0,0,0.1-0.1,0.1-0.2s0.1-0.2,0.1-0.2c0-0.1,0-0.2,0-0.3s0-0.2,0-0.2c0-0.1,0-0.1,0-0.1h-0.1c0,0-0.1,0-0.2,0.1
			c-0.1,0-0.2,0.1-0.4,0.1s-0.3,0.1-0.5,0.1s-0.4,0.1-0.7,0.1c-0.4,0-0.6-0.1-0.8-0.2c-0.2-0.2-0.2-0.4-0.2-0.7c0-0.1,0-0.2,0-0.2
			c0-0.1,0-0.2,0-0.3h0.5c0.6,0,1.1,0,1.5-0.1s0.8-0.2,1-0.4c0.3-0.2,0.5-0.4,0.6-0.6s0.2-0.5,0.2-0.8c0-0.2,0-0.4-0.1-0.5
			C-134.9,439.6-135,439.4-135.2,439.3z M-136.2,440.7c-0.1,0.1-0.2,0.2-0.3,0.2c-0.1,0.1-0.3,0.1-0.5,0.2c-0.2,0-0.5,0.1-0.8,0.1
			h-0.5c0.1-0.2,0.1-0.4,0.2-0.5c0.1-0.2,0.2-0.3,0.3-0.4s0.3-0.2,0.4-0.3c0.2-0.1,0.3-0.1,0.5-0.1s0.4,0.1,0.5,0.2s0.2,0.2,0.2,0.4
			C-136.1,440.5-136.2,440.6-136.2,440.7z"/>
	</g>
	<g>
		<path class="st2" d="M-124.2,437.5c0,0-0.1-0.1-0.3-0.2c-0.1-0.1-0.3-0.1-0.5-0.2s-0.4-0.1-0.7-0.2c-0.3,0-0.5-0.1-0.8-0.1
			c-0.5,0-1,0.1-1.4,0.2s-0.8,0.3-1.2,0.5s-0.7,0.5-0.9,0.8c-0.3,0.3-0.5,0.6-0.7,1s-0.3,0.7-0.4,1.2c-0.1,0.4-0.1,0.8-0.1,1.2
			c0,0.5,0.1,0.9,0.2,1.2c0.1,0.4,0.4,0.7,0.6,0.9c0.3,0.2,0.6,0.4,1,0.6c0.4,0.1,0.9,0.2,1.4,0.2c0.3,0,0.6,0,0.8-0.1
			c0.3,0,0.5-0.1,0.8-0.2c0.2-0.1,0.4-0.1,0.6-0.2c0.2-0.1,0.3-0.1,0.3-0.2l0.1-0.1c0-0.1,0-0.1,0.1-0.2l0.6-3c0-0.2,0-0.3,0-0.4
			c-0.1-0.1-0.1-0.1-0.3-0.1h-2.6c0,0-0.1,0-0.1,0.1l-0.1,0.1c0,0.1-0.1,0.1-0.1,0.2s0,0.1,0,0.2s0,0.1,0,0.2s0,0.1,0,0.2
			s0,0.1,0,0.2l0.1,0.1h1.4l-0.4,1.7c-0.2,0.1-0.3,0.1-0.5,0.2c-0.2,0-0.4,0.1-0.6,0.1c-0.3,0-0.5,0-0.8-0.1
			c-0.2-0.1-0.4-0.2-0.6-0.3c-0.2-0.2-0.3-0.3-0.4-0.6c0.1-0.2,0.1-0.5,0.1-0.8s0-0.5,0.1-0.8s0.1-0.5,0.3-0.8
			c0.1-0.3,0.3-0.5,0.4-0.7c0.2-0.2,0.4-0.4,0.6-0.6c0.2-0.2,0.5-0.3,0.8-0.4s0.6-0.1,0.9-0.1c0.3,0,0.6,0,0.9,0.1
			c0.2,0.1,0.4,0.1,0.6,0.2c0.2,0.1,0.3,0.2,0.4,0.2c0.1,0.1,0.2,0.1,0.2,0.1s0.1,0,0.1-0.1l0.1-0.1c0-0.1,0.1-0.1,0.1-0.2
			s0-0.1,0-0.2s0-0.1,0-0.2s0-0.1,0-0.2s0-0.1,0-0.2C-124.1,437.6-124.2,437.5-124.2,437.5z"/>
	</g>
	<g>
		<path class="st2" d="M-118.1,439c0,0-0.1,0-0.2,0c-0.1,0-0.2,0-0.3,0c-0.2,0-0.4,0-0.5,0.1c-0.1,0-0.2,0.1-0.2,0.2l-0.1,0.5
			c-0.2-0.3-0.4-0.5-0.7-0.6c-0.2-0.1-0.5-0.2-0.9-0.2c-0.3,0-0.7,0.1-0.9,0.2c-0.3,0.1-0.5,0.3-0.7,0.5s-0.4,0.4-0.5,0.7
			c-0.2,0.3-0.3,0.5-0.4,0.8c-0.1,0.3-0.2,0.6-0.2,0.9s-0.1,0.6-0.1,0.8c0,0.3,0,0.5,0.1,0.7s0.1,0.4,0.3,0.6
			c0.1,0.2,0.3,0.3,0.5,0.4s0.5,0.2,0.8,0.2c0.2,0,0.4,0,0.7-0.1c0.2-0.1,0.4-0.2,0.6-0.3c0.2-0.1,0.3-0.2,0.5-0.4
			c0.1-0.1,0.2-0.3,0.3-0.4l-0.2,0.8v0.1c0,0,0,0.1,0.1,0.1c0,0,0.1,0,0.2,0c0.1,0,0.2,0,0.3,0c0.2,0,0.4,0,0.5-0.1
			c0.1,0,0.2-0.1,0.2-0.2l1-5.2C-118,439.1-118,439.1-118.1,439C-118,439-118.1,439-118.1,439z M-120,441.5
			c-0.1,0.3-0.1,0.5-0.3,0.8c-0.1,0.2-0.3,0.4-0.4,0.6c-0.2,0.2-0.3,0.3-0.5,0.4s-0.4,0.2-0.5,0.2s-0.2,0-0.3-0.1
			c-0.1,0-0.1-0.1-0.2-0.2c0-0.1-0.1-0.2-0.1-0.3s0-0.2,0-0.3c0-0.2,0-0.3,0-0.5s0.1-0.4,0.1-0.6s0.1-0.4,0.2-0.5
			c0.1-0.2,0.2-0.3,0.3-0.5c0.1-0.1,0.2-0.2,0.4-0.3c0.1-0.1,0.3-0.1,0.5-0.1s0.4,0.1,0.6,0.2c0.2,0.1,0.3,0.3,0.5,0.5L-120,441.5z"
			/>
	</g>
	<g>
		<path class="st2" d="M-109,439.3c-0.1-0.1-0.3-0.2-0.4-0.3c-0.2-0.1-0.4-0.1-0.7-0.1c-0.2,0-0.4,0-0.6,0.1
			c-0.2,0.1-0.4,0.2-0.6,0.3s-0.3,0.2-0.5,0.4c-0.1,0.1-0.3,0.3-0.3,0.4c0-0.2-0.1-0.3-0.1-0.5c-0.1-0.1-0.1-0.3-0.2-0.4
			c-0.1-0.1-0.2-0.2-0.4-0.3c-0.2-0.1-0.4-0.1-0.6-0.1s-0.4,0-0.6,0.1c-0.2,0.1-0.4,0.2-0.6,0.3s-0.3,0.2-0.5,0.4
			c-0.2,0.2-0.2,0.3-0.3,0.4l0.2-0.9V439c0,0,0-0.1-0.1-0.1c0,0-0.1,0-0.2,0s-0.2,0-0.3,0s-0.2,0-0.3,0s-0.2,0-0.2,0
			c-0.1,0-0.1,0-0.1,0.1v0.1l-1,5.2v0.1c0,0,0,0.1,0.1,0.1s0.1,0,0.2,0c0.1,0,0.2,0,0.4,0c0.1,0,0.3,0,0.4,0c0.1,0,0.2,0,0.2,0
			c0.1,0,0.1,0,0.1-0.1c0,0,0-0.1,0.1-0.1l0.5-2.4c0.1-0.3,0.1-0.5,0.3-0.7c0.1-0.2,0.3-0.4,0.4-0.6c0.2-0.2,0.3-0.3,0.5-0.4
			s0.3-0.2,0.5-0.2s0.3,0.1,0.4,0.2c0.1,0.1,0.1,0.3,0.1,0.4s0,0.2,0,0.3c0,0.1,0,0.2,0,0.3l-0.6,3.1v0.1l0.1,0.1c0.1,0,0.1,0,0.2,0
			s0.2,0,0.3,0s0.3,0,0.4,0c0.1,0,0.2,0,0.2,0c0.1,0,0.1,0,0.1-0.1c0,0,0-0.1,0.1-0.1l0.5-2.4c0.1-0.3,0.1-0.5,0.3-0.7
			c0.1-0.2,0.3-0.4,0.4-0.6c0.2-0.2,0.3-0.3,0.5-0.4s0.3-0.2,0.5-0.2s0.3,0.1,0.4,0.2c0.1,0.1,0.1,0.3,0.1,0.4s0,0.2,0,0.3
			s0,0.2,0,0.3l-0.6,3.1v0.1l0.1,0.1c0.1,0,0.1,0,0.2,0s0.2,0,0.4,0c0.1,0,0.3,0,0.4,0c0.1,0,0.2,0,0.2,0c0.1,0,0.1,0,0.1-0.1
			c0,0,0-0.1,0.1-0.1l0.6-3.2c0-0.1,0.1-0.3,0.1-0.4s0-0.3,0-0.4c0-0.2,0-0.4-0.1-0.6C-108.8,439.6-108.9,439.4-109,439.3z"/>
	</g>
	<g>
		<path class="st2" d="M-103,439.3c-0.2-0.1-0.4-0.2-0.6-0.3c-0.3-0.1-0.6-0.1-0.9-0.1c-0.4,0-0.8,0.1-1.1,0.2s-0.6,0.3-0.8,0.5
			s-0.5,0.4-0.6,0.7c-0.2,0.3-0.3,0.5-0.4,0.8c-0.1,0.3-0.2,0.6-0.2,0.9s-0.1,0.6-0.1,0.8c0,0.3,0,0.6,0.1,0.9
			c0.1,0.2,0.2,0.5,0.4,0.6c0.2,0.2,0.4,0.3,0.7,0.4s0.6,0.1,1,0.1c0.2,0,0.4,0,0.7,0c0.2,0,0.4-0.1,0.6-0.1c0.2,0,0.3-0.1,0.5-0.1
			c0.1,0,0.2-0.1,0.3-0.1c0,0,0.1-0.1,0.1-0.2s0.1-0.2,0.1-0.2c0-0.1,0-0.2,0-0.3s0-0.2,0-0.2c0-0.1,0-0.1,0-0.1h-0.1
			c0,0-0.1,0-0.2,0.1c-0.1,0-0.2,0.1-0.4,0.1s-0.3,0.1-0.5,0.1s-0.4,0.1-0.7,0.1c-0.4,0-0.6-0.1-0.8-0.2c-0.2-0.2-0.2-0.4-0.2-0.7
			c0-0.1,0-0.2,0-0.2c0-0.1,0-0.2,0-0.3h0.5c0.6,0,1.1,0,1.5-0.1s0.8-0.2,1-0.4c0.3-0.2,0.5-0.4,0.6-0.6s0.2-0.5,0.2-0.8
			c0-0.2,0-0.4-0.1-0.5C-102.7,439.6-102.9,439.4-103,439.3z M-104.1,440.7c-0.1,0.1-0.2,0.2-0.3,0.2c-0.1,0.1-0.3,0.1-0.5,0.2
			c-0.2,0-0.5,0.1-0.8,0.1h-0.5c0.1-0.2,0.1-0.4,0.2-0.5c0.1-0.2,0.2-0.3,0.3-0.4s0.3-0.2,0.4-0.3c0.2-0.1,0.3-0.1,0.5-0.1
			s0.4,0.1,0.5,0.2s0.2,0.2,0.2,0.4C-104,440.5-104,440.6-104.1,440.7z"/>
	</g>
	<g>
		<path class="st2" d="M-97.9,439.2c0,0-0.1-0.1-0.2-0.1s-0.2-0.1-0.3-0.1s-0.3-0.1-0.4-0.1c-0.2,0-0.3,0-0.5,0c-0.4,0-0.7,0-1,0.1
			s-0.5,0.2-0.7,0.4c-0.2,0.2-0.4,0.4-0.5,0.6s-0.2,0.5-0.2,0.8s0,0.5,0.1,0.6c0.1,0.2,0.2,0.3,0.4,0.4c0.1,0.1,0.3,0.2,0.5,0.3
			c0.2,0.1,0.3,0.2,0.5,0.2c0.1,0.1,0.3,0.2,0.4,0.2c0.1,0.1,0.1,0.2,0.1,0.3s0,0.2-0.1,0.3c0,0.1-0.1,0.2-0.2,0.2
			c-0.1,0.1-0.2,0.1-0.3,0.2c-0.1,0-0.3,0.1-0.4,0.1c-0.2,0-0.4,0-0.6-0.1c-0.2,0-0.3-0.1-0.4-0.2c-0.1-0.1-0.2-0.1-0.3-0.2
			c-0.1,0-0.1-0.1-0.2-0.1h-0.1l-0.1,0.1c0,0.1,0,0.1-0.1,0.2c0,0.1,0,0.1,0,0.2s0,0.1,0,0.2s0,0.1,0,0.1c0,0.1,0,0.1,0,0.1
			s0,0.1,0.1,0.1c0,0,0.1,0.1,0.2,0.1c0.1,0.1,0.2,0.1,0.3,0.1s0.3,0.1,0.5,0.1s0.3,0,0.5,0c0.4,0,0.7-0.1,1-0.2s0.6-0.2,0.8-0.4
			s0.4-0.4,0.5-0.7s0.2-0.5,0.2-0.8s0-0.5-0.1-0.6c-0.1-0.2-0.2-0.3-0.4-0.4c-0.1-0.1-0.3-0.2-0.5-0.3s-0.3-0.2-0.5-0.2
			c-0.1-0.1-0.3-0.1-0.4-0.2c-0.1-0.1-0.1-0.2-0.1-0.3s0-0.2,0.1-0.3c0-0.1,0.1-0.2,0.2-0.2c0.1-0.1,0.2-0.1,0.3-0.1
			s0.2-0.1,0.4-0.1s0.3,0,0.5,0.1c0.1,0,0.2,0.1,0.3,0.1s0.2,0.1,0.2,0.1c0.1,0,0.1,0.1,0.2,0.1c0,0,0.1,0,0.1-0.1s0.1-0.1,0.1-0.2
			S-98,439.4-97.9,439.2v-0.1C-97.8,439.3-97.8,439.2-97.9,439.2z"/>
	</g>
</g>
<path class="st3" d="M-86.3,370.3L-86.3,370.3l-40.5-3.6l0,0c-7.5-0.1-13.9,5.5-14.6,13.1c-0.7,7.9,5.2,14.9,13.1,15.6
	c3.4,0.3,6.6-0.6,9.2-2.4l20.6,1.8c2.3,2.2,5.3,3.6,8.7,3.9c7.9,0.8,14.9-5,15.6-13C-73.5,378.2-78.9,371.4-86.3,370.3z"/>
<path class="st4" d="M-137.7,380.1c-0.6,7.4,4.3,13.9,11.3,15.4c-0.6,0-1.2,0-1.9,0c-8-0.7-13.9-7.7-13.2-15.7
	c0.7-7.6,7.2-13.4,14.7-13.2l0,0l3.8,0.3l0,0C-130.5,366.7-137,372.4-137.7,380.1z"/>
<path class="st5" d="M-77.9,385.4c-0.6,7.3-6.6,12.8-13.7,13.1c0.6,0.1,1.2,0.2,1.8,0.3c7.9,0.7,14.9-5.1,15.6-13.1
	c0.7-7.6-4.7-14.3-12.1-15.5l0,0l-3.7-0.3l0,0C-82.6,371.1-77.2,377.8-77.9,385.4z"/>
<circle class="st2" cx="-127.1" cy="381.1" r="9"/>
<circle class="st2" cx="-88.5" cy="384.5" r="9"/>
<path class="st1" d="M-129.6,390.3c-1.9-0.5-3.5-1.6-4.8-3.1c-1.6-1.9-2.4-4.4-2.2-6.9s1.4-4.8,3.4-6.4s4.4-2.4,6.9-2.2
	c3.4,0.3,6.4,2.4,7.8,5.5c0.1,0.2,0,0.4-0.2,0.5s-0.4,0-0.5-0.2c-1.3-2.9-4-4.8-7.2-5.1c-2.3-0.2-4.6,0.5-6.3,2
	c-1.8,1.5-2.9,3.6-3.1,5.9c-0.2,2.3,0.5,4.6,2,6.3c1.5,1.8,3.6,2.9,5.9,3.1s4.6-0.5,6.3-2c1.8-1.5,2.9-3.6,3.1-5.9
	c0-0.2,0.2-0.4,0.4-0.4s0.4,0.2,0.4,0.4c-0.2,2.5-1.4,4.8-3.4,6.4c-1.9,1.6-4.4,2.4-6.9,2.2C-128.5,390.5-129,390.4-129.6,390.3z"/>
<path class="st1" d="M-92.2,393.2L-92.2,393.2c-3.9-1.6-6.2-5.5-5.8-9.6c0.2-2.5,1.4-4.8,3.4-6.4c1.9-1.6,4.4-2.4,6.9-2.2
	c2.5,0.2,4.8,1.4,6.4,3.4c1.6,1.9,2.4,4.4,2.2,6.9s-1.4,4.8-3.4,6.4c-1.9,1.6-4.4,2.4-6.9,2.2c-0.2,0-0.4-0.2-0.4-0.4
	c0-0.2,0.2-0.4,0.4-0.4c2.3,0.2,4.6-0.5,6.3-2c1.8-1.5,2.9-3.6,3.1-5.9c0.2-2.3-0.5-4.6-2-6.3c-1.5-1.8-3.6-2.9-5.9-3.1
	c-2.3-0.2-4.6,0.5-6.3,2c-1.8,1.5-2.9,3.6-3.1,5.9c-0.3,3.8,1.8,7.3,5.3,8.8c0.2,0.1,0.3,0.3,0.2,0.5
	C-91.8,393.2-92,393.3-92.2,393.2z"/>
<polygon class="st6" points="-121,379.8 -125.1,379.5 -124.8,375.3 -128.4,375 -128.8,379.1 -132.9,378.8 -133.2,382.4 
	-129.1,382.8 -129.4,386.9 -125.8,387.2 -125.4,383.1 -121.3,383.5 "/>
<g>
	<path class="st6" d="M-84.8,382.7l-6,1.3c-1.4,0.3-2.7-0.8-2.5-2.3l0,0c0.1-0.9,0.8-1.7,1.7-1.9l6-1.3c1.4-0.3,2.7,0.8,2.5,2.3l0,0
		C-83.2,381.8-83.9,382.5-84.8,382.7z"/>
	<path class="st6" d="M-85.4,389.1l-6,1.3c-1.4,0.3-2.7-0.8-2.5-2.3l0,0c0.1-0.9,0.8-1.7,1.7-1.9l6-1.3c1.4-0.3,2.7,0.8,2.5,2.3l0,0
		C-83.8,388.2-84.5,388.9-85.4,389.1z"/>
</g>
<path class="st1" d="M-129.6,387.5c-0.3-0.1-0.5-0.3-0.4-0.6l0.3-3.5l-3.5-0.3c-0.2,0-0.3-0.1-0.4-0.2c-0.1-0.1-0.2-0.3-0.1-0.4
	l0.3-3.6c0-0.3,0.3-0.6,0.6-0.5l3.5,0.3l0.3-3.5c0-0.2,0.1-0.3,0.2-0.4c0.1-0.1,0.3-0.2,0.4-0.1l3.6,0.3c0.3,0,0.6,0.3,0.5,0.6
	l-0.3,3.5l3.5,0.3c0.2,0,0.3,0.1,0.4,0.2c0.1,0.1,0.2,0.3,0.1,0.4l-0.3,3.6c0,0.3-0.3,0.6-0.6,0.5l-3.4-0.4l-0.3,3.5
	c0,0.2-0.1,0.3-0.2,0.4c-0.1,0.1-0.3,0.2-0.4,0.1l-3.6-0.3C-129.5,387.5-129.6,387.5-129.6,387.5z M-128.9,382.2
	c0.3,0.1,0.5,0.3,0.4,0.6l-0.3,3.5l2.5,0.2l0.3-3.5c0-0.3,0.3-0.6,0.6-0.5l3.5,0.3l0.2-2.5l-3.5-0.3c-0.2,0-0.3-0.1-0.4-0.2
	s-0.2-0.3-0.1-0.4l0.3-3.5l-2.5-0.2l-0.3,3.5c0,0.3-0.3,0.6-0.6,0.5l-3.5-0.3l-0.3,2.5l3.5,0.3C-129,382.2-129,382.2-128.9,382.2z"
	/>
<g>
	<path class="st1" d="M-91.9,384.5c-0.4-0.1-0.8-0.3-1.1-0.6c-0.6-0.6-1-1.4-0.9-2.3c0.1-1.2,1-2.2,2.1-2.4l6-1.3
		c0.8-0.2,1.7,0.1,2.4,0.6c0.6,0.6,1,1.4,0.9,2.3c-0.1,1.2-1,2.2-2.1,2.4l0,0l-6,1.3C-91.1,384.7-91.5,384.7-91.9,384.5z
		 M-84.9,379.2c-0.2-0.1-0.5-0.1-0.7,0l-6,1.3c-0.7,0.1-1.1,0.7-1.2,1.4c0,0.5,0.1,0.9,0.5,1.3c0.4,0.3,0.8,0.5,1.3,0.4l6-1.3
		c0.7-0.1,1.1-0.7,1.2-1.4c0-0.5-0.1-0.9-0.5-1.3C-84.4,379.4-84.6,379.3-84.9,379.2z"/>
	<path class="st1" d="M-92.5,390.9c-0.4-0.1-0.8-0.3-1.1-0.6c-0.6-0.6-1-1.4-0.9-2.3c0.1-1.2,1-2.2,2.1-2.4l6-1.3
		c0.8-0.2,1.7,0,2.4,0.6c0.6,0.6,1,1.4,0.9,2.3c-0.1,1.2-1,2.2-2.1,2.4l0,0l-6,1.3C-91.7,391.1-92.1,391-92.5,390.9z M-85.4,385.6
		c-0.2-0.1-0.5-0.1-0.7,0l-6,1.3c-0.7,0.1-1.1,0.7-1.2,1.4c0,0.5,0.1,0.9,0.5,1.3c0.4,0.3,0.8,0.4,1.3,0.4l6-1.3l0,0
		c0.7-0.1,1.1-0.7,1.2-1.4c0-0.5-0.1-0.9-0.5-1.3C-85,385.8-85.2,385.6-85.4,385.6z"/>
</g>
<g>
	<path class="st1" d="M-111.5,386.7c-0.3,0-0.6-0.1-0.8-0.4c-0.3-0.4-0.2-1,0.2-1.3l1.8-1.3c0.4-0.3,1-0.2,1.3,0.2
		c0.3,0.4,0.2,1-0.2,1.3l-1.8,1.3C-111.1,386.6-111.3,386.7-111.5,386.7z"/>
	<path class="st1" d="M-106.4,387.1c-0.3,0-0.6-0.1-0.8-0.4c-0.3-0.4-0.2-1,0.2-1.3l1.8-1.3c0.4-0.3,1-0.2,1.3,0.2s0.2,1-0.2,1.3
		l-1.8,1.3C-106,387-106.2,387.1-106.4,387.1z"/>
</g>
<path class="st1" d="M-89.8,399.4c-3.3-0.3-6.5-1.7-8.9-4l-20.3-1.7c-2.8,1.8-6.1,2.6-9.5,2.4c-8.2-0.7-14.3-8-13.6-16.2
	c0.7-7.7,7.2-13.7,15-13.7c0.1,0,0.2,0,0.3,0l40.6,3.5c0.1,0,0.2,0,0.2,0.1c7.6,1.3,13.1,8.3,12.4,16.1
	C-74.3,394-81.6,400.1-89.8,399.4z M-119.1,392.5l20.6,1.8c0.1,0,0.3,0.1,0.4,0.2c2.3,2.2,5.2,3.5,8.3,3.8c7.6,0.7,14.3-5,14.9-12.5
	c0.6-7.2-4.5-13.7-11.6-14.8c-0.1,0-0.1,0-0.2-0.1l-40-3.6c-0.1,0-0.1,0-0.2,0c-7.2-0.1-13.4,5.4-14,12.6c-0.7,7.6,5,14.3,12.5,14.9
	c3.2,0.3,6.2-0.5,8.9-2.3C-119.3,392.5-119.2,392.5-119.1,392.5z"/>
<path class="st1" d="M-103,361.9c0.1-0.5-0.2-1.1-0.8-1.5c-0.4-0.3-1-0.6-1.7-0.7l0.3-1.5c0-0.2-0.2-0.5-0.4-0.5s-0.4,0.1-0.5,0.3
	l-0.3,1.5c-0.7-0.1-1.3,0-1.8,0.1c-0.7,0.2-1.2,0.6-1.3,1.1c0,0.2,0,0.5,0.1,0.7c-0.1,0.3-0.2,0.5-0.3,0.8c0,0.2,0,0.5,0.1,0.7
	c-0.2,0.2-0.3,0.4-0.4,0.6c0,0.2,0,0.5,0.1,0.7c-0.2,0.2-0.3,0.4-0.4,0.6c-0.2,0.9,0.9,1.9,2.5,2.3l0,0l-0.2,1.1
	c0,0.2,0.1,0.4,0.3,0.5c0,0,0,0,0.1,0c0.2,0,0.4-0.1,0.4-0.3l0.2-1.1l0,0c0.2,0,0.4,0,0.6,0c0.4,0,0.8-0.1,1.2-0.2
	c0.7-0.2,1.2-0.6,1.3-1.1c0-0.3,0-0.5-0.1-0.7c0.3-0.1,0.4-0.4,0.5-0.6c0-0.2,0-0.5-0.1-0.7c0.2-0.2,0.3-0.4,0.4-0.6
	c0-0.3,0-0.5-0.1-0.7C-103.2,362.4-103.1,362.2-103,361.9z M-107.9,360.4c0.3-0.1,0.6-0.1,1-0.1c0.3,0,0.6,0,0.9,0.1
	c0.7,0.1,1.3,0.4,1.7,0.7c0.3,0.3,0.5,0.5,0.5,0.7c0,0.1,0,0.1-0.1,0.1c-0.5-0.4-1.3-0.8-2.3-1s-1.8-0.1-2.5,0.1c0-0.1,0-0.1,0-0.2
	C-108.6,360.7-108.3,360.5-107.9,360.4z M-104.3,364.6c0,0.1,0,0.1-0.1,0.1c-0.1-0.1-0.2-0.1-0.3-0.2h0.1c0.1,0,0.2,0,0.2-0.1
	C-104.3,364.4-104.3,364.5-104.3,364.6z M-109.1,363.7c0-0.1,0-0.1,0.1-0.2c0.1,0.1,0.2,0.1,0.3,0.2h-0.1c-0.1,0-0.1,0-0.2,0.1
	C-109.1,363.8-109.1,363.8-109.1,363.7z M-108.9,362.3c0,0,0-0.1,0.1-0.1c0.1,0.1,0.2,0.1,0.3,0.2h-0.1c-0.1,0-0.1,0-0.2,0.1
	C-108.9,362.4-108.9,362.4-108.9,362.3z M-106.6,363.7c-0.7-0.1-1.2-0.3-1.6-0.6c0.2-0.1,0.5-0.1,0.8-0.1s0.6,0,0.9,0.1
	c0.6,0.1,1.2,0.3,1.6,0.6C-105.4,363.8-106,363.8-106.6,363.7z M-107.7,364.4c0.3,0,0.6,0,0.9,0.1c0.7,0.1,1.2,0.3,1.6,0.6
	c-0.4,0.1-1,0.1-1.7,0s-1.2-0.3-1.6-0.6C-108.2,364.5-107.9,364.4-107.7,364.4z M-106.4,362.4c-0.7-0.1-1.2-0.3-1.6-0.6
	c0.3-0.1,0.5-0.1,0.8-0.1s0.6,0,0.9,0.1c0.7,0.1,1.2,0.3,1.6,0.6C-105.2,362.4-105.7,362.5-106.4,362.4z M-104.5,365.9
	c0,0.2-0.3,0.4-0.7,0.5c-0.5,0.1-1.2,0.2-1.9,0c-1.5-0.3-2.3-1-2.2-1.4c0-0.1,0-0.1,0.1-0.2c0.5,0.4,1.3,0.8,2.3,1
	c0.4,0.1,0.7,0.1,1,0.1c0.5,0,1-0.1,1.4-0.2C-104.5,365.8-104.5,365.9-104.5,365.9z M-104.1,363.2c0,0.1,0,0.1-0.1,0.2
	c-0.1,0-0.1-0.1-0.2-0.1c0,0-0.1,0-0.1-0.1c0.1,0,0.2-0.1,0.3-0.1S-104.1,363.1-104.1,363.2z"/>
</svg>
