<?xml version="1.0" encoding="utf-8"?>
<!-- Generator: Adobe Illustrator 19.1.0, SVG Export Plug-In . SVG Version: 6.00 Build 0)  -->
<svg version="1.1" id="Capa_1" xmlns="http://www.w3.org/2000/svg" xmlns:xlink="http://www.w3.org/1999/xlink" x="0px" y="0px"
	 viewBox="25 -25.3 250.3 250.3" style="enable-background:new 25 -25.3 250.3 250.3;" xml:space="preserve">
<style type="text/css">
	.st0{fill:#F79448;}
</style>
<g id="Search">
	<path class="st0" d="M31.1,218.9c8.2,8.2,21.4,8.2,29.6,0l54.4-54.4c0.3-0.3,0.5-0.6,0.8-0.9c16.2,10.7,35.7,16.9,56.6,16.9
		c56.8,0,102.9-46.1,102.9-102.9c0-56.8-46.1-102.9-102.9-102.9S69.5,20.8,69.5,77.6c0,20.9,6.2,40.3,16.9,56.6
		c-0.3,0.3-0.6,0.5-0.9,0.8l-54.4,54.4C23,197.5,23,210.7,31.1,218.9z M105.2,77.6c0-37.1,30.1-67.2,67.2-67.2
		c37.1,0,67.2,30.1,67.2,67.2c0,37.1-30.1,67.2-67.2,67.2C135.3,144.8,105.2,114.7,105.2,77.6z"/>
</g>
</svg>
